<svg width="24" height="25" viewBox="0 0 24 25" fill="none" xmlns="http://www.w3.org/2000/svg">
<path d="M22.25 4.06738H2.75C2.33516 4.06738 2 4.39788 2 4.80695V19.5984C2 20.0075 2.33516 20.338 2.75 20.338H22.25C22.6648 20.338 23 20.0075 23 19.5984V4.80695C23 4.39788 22.6648 4.06738 22.25 4.06738ZM21.3125 6.62815V18.6739H3.6875V6.62815L3.04063 6.13125L3.96172 4.96411L4.96484 5.73373H20.0375L21.0406 4.96411L21.9617 6.13125L21.3125 6.62815ZM20.0375 5.73142L12.5 11.5093L4.9625 5.73142L3.95938 4.9618L3.03828 6.12894L3.68516 6.62584L11.6914 12.7643C11.9217 12.9407 12.2049 13.0364 12.4965 13.0364C12.7881 13.0364 13.0713 12.9407 13.3016 12.7643L21.3125 6.62815L21.9594 6.13125L21.0383 4.96411L20.0375 5.73142Z" fill="#393333"/>
</svg>
