
<!-- Generator: visioncortex VTracer 0.6.4 -->
<svg version="1.1" xmlns="http://www.w3.org/2000/svg" viewBox="0 0 600 600" preserveAspectRatio="xMidYMid meet">
<path d="M0 0 C4.005 1.115 6.34 3.415 9.171 6.309 C9.767 6.895 10.363 7.48 10.977 8.083 C12.94 10.02 14.88 11.977 16.82 13.938 C18.178 15.292 19.537 16.645 20.897 17.997 C23.743 20.834 26.578 23.682 29.405 26.537 C33.03 30.196 36.681 33.828 40.341 37.452 C43.152 40.241 45.948 43.044 48.741 45.852 C50.082 47.197 51.427 48.538 52.777 49.873 C54.661 51.743 56.526 53.63 58.386 55.524 C58.947 56.073 59.508 56.622 60.086 57.187 C62.717 59.906 63.847 61.375 64.234 65.197 C64.064 66.488 64.064 66.488 63.89 67.805 C58.583 70.221 53.292 71.956 47.675 73.504 C46.82 73.744 45.964 73.984 45.082 74.231 C42.374 74.989 39.663 75.741 36.953 76.492 C35.106 77.008 33.259 77.524 31.412 78.041 C26.906 79.301 22.399 80.554 17.89 81.805 C18.838 81.808 18.838 81.808 19.806 81.812 C35.17 81.871 50.534 81.947 65.898 82.04 C73.328 82.086 80.758 82.125 88.188 82.151 C94.662 82.174 101.137 82.208 107.611 82.253 C111.041 82.277 114.47 82.296 117.9 82.302 C121.724 82.31 125.548 82.34 129.372 82.372 C130.515 82.371 131.658 82.37 132.836 82.368 C133.873 82.381 134.911 82.393 135.98 82.406 C136.885 82.411 137.791 82.415 138.723 82.42 C139.438 82.547 140.153 82.674 140.89 82.805 C143.44 86.629 143.186 89.743 143.181 94.176 C143.187 95.03 143.194 95.884 143.201 96.764 C143.22 99.59 143.224 102.416 143.226 105.242 C143.233 107.204 143.239 109.165 143.246 111.127 C143.258 115.239 143.262 119.352 143.261 123.464 C143.261 128.74 143.288 134.016 143.322 139.292 C143.345 143.343 143.349 147.394 143.348 151.445 C143.35 153.391 143.359 155.336 143.374 157.282 C143.394 160 143.388 162.716 143.376 165.434 C143.387 166.241 143.399 167.048 143.41 167.88 C143.349 173.304 143.349 173.304 141.005 175.865 C138.89 176.805 138.89 176.805 136.568 176.217 C135.684 175.751 134.801 175.285 133.89 174.805 C132.826 174.261 131.761 173.717 130.664 173.157 C129.458 172.512 128.254 171.865 127.05 171.215 C126.406 170.87 125.761 170.525 125.097 170.169 C123.048 169.071 121 167.969 118.953 166.867 C116.909 165.77 114.864 164.673 112.819 163.576 C111.551 162.896 110.283 162.215 109.016 161.533 C105.338 159.558 101.627 157.665 97.89 155.805 C98.322 156.233 98.754 156.661 99.199 157.103 C109.709 167.524 120.208 177.957 130.695 188.402 C135.767 193.453 140.842 198.501 145.926 203.539 C150.357 207.93 154.782 212.329 159.197 216.736 C161.536 219.069 163.879 221.397 166.228 223.72 C168.85 226.313 171.459 228.918 174.066 231.526 C174.848 232.294 175.629 233.061 176.435 233.852 C177.143 234.566 177.851 235.279 178.581 236.015 C179.2 236.629 179.818 237.244 180.455 237.878 C182.182 240.196 182.612 241.945 182.89 244.805 C181.895 246.591 181.895 246.591 180.232 248.314 C179.579 249.004 178.926 249.695 178.253 250.406 C177.473 251.197 176.694 251.989 175.89 252.805 C174.994 253.741 174.097 254.677 173.174 255.642 C166.909 262.173 160.533 268.598 154.165 275.027 C150.942 278.28 147.728 281.541 144.532 284.821 C141.423 288.012 138.295 291.183 135.152 294.341 C133.962 295.544 132.778 296.753 131.602 297.969 C129.96 299.664 128.296 301.332 126.623 302.996 C126.145 303.502 125.666 304.007 125.174 304.528 C123.773 305.891 123.773 305.891 120.89 307.805 C118.58 307.475 116.27 307.145 113.89 306.805 C109.6 291.955 105.31 277.105 100.89 261.805 C100.87 265.49 100.851 269.175 100.83 272.972 C100.763 285.122 100.686 297.272 100.603 309.422 C100.553 316.791 100.506 324.16 100.468 331.53 C100.435 337.952 100.396 344.373 100.347 350.795 C100.322 354.196 100.3 357.598 100.287 360.999 C100.27 364.793 100.241 368.585 100.209 372.379 C100.206 374.079 100.206 374.079 100.203 375.814 C100.191 376.843 100.18 377.872 100.169 378.933 C100.163 379.831 100.158 380.728 100.152 381.653 C99.89 383.805 99.89 383.805 97.89 385.805 C95.028 385.993 92.264 386.056 89.401 386.032 C88.523 386.032 87.645 386.032 86.74 386.033 C83.829 386.031 80.918 386.016 78.007 386 C75.992 385.996 73.977 385.994 71.963 385.992 C66.652 385.984 61.342 385.964 56.032 385.942 C50.616 385.922 45.201 385.913 39.785 385.902 C29.153 385.881 18.522 385.847 7.89 385.805 C5.785 381.123 5.785 381.123 6.73 378.256 C7.234 377.366 7.738 376.476 8.257 375.559 C9.087 374.064 9.087 374.064 9.932 372.539 C10.537 371.492 11.142 370.446 11.765 369.367 C12.364 368.299 12.963 367.23 13.58 366.129 C15.333 363.011 17.109 359.907 18.89 356.805 C19.776 355.242 20.66 353.678 21.543 352.113 C23.305 348.999 25.088 345.897 26.89 342.805 C22.269 346.289 18.306 350.289 14.258 354.403 C13.506 355.163 12.754 355.923 11.979 356.705 C10.352 358.35 8.725 359.996 7.1 361.642 C3.643 365.141 0.178 368.63 -3.287 372.119 C-9.735 378.613 -16.179 385.11 -22.607 391.624 C-27.082 396.159 -31.569 400.681 -36.065 405.195 C-37.776 406.918 -39.482 408.645 -41.183 410.376 C-43.56 412.794 -45.952 415.196 -48.348 417.595 C-49.048 418.314 -49.748 419.034 -50.469 419.775 C-53.293 422.576 -55.503 424.551 -59.197 426.099 C-63.485 425.666 -65.611 423.267 -68.482 420.306 C-69.088 419.71 -69.694 419.113 -70.317 418.499 C-72.315 416.521 -74.287 414.52 -76.258 412.516 C-77.639 411.135 -79.02 409.756 -80.403 408.377 C-83.297 405.484 -86.179 402.58 -89.052 399.666 C-92.737 395.929 -96.449 392.22 -100.169 388.519 C-103.025 385.673 -105.869 382.815 -108.708 379.953 C-110.072 378.581 -111.44 377.212 -112.811 375.846 C-114.724 373.936 -116.621 372.01 -118.514 370.08 C-119.084 369.516 -119.654 368.953 -120.242 368.373 C-122.504 366.035 -123.99 364.293 -124.772 361.1 C-124.11 358.805 -124.11 358.805 -122.174 357.161 C-118.227 355.414 -114.249 354.237 -110.09 353.106 C-109.232 352.866 -108.373 352.626 -107.489 352.379 C-104.76 351.618 -102.029 350.867 -99.297 350.117 C-97.441 349.602 -95.585 349.085 -93.729 348.568 C-89.191 347.306 -84.651 346.053 -80.11 344.805 C-81.033 344.801 -81.033 344.801 -81.975 344.798 C-96.948 344.738 -111.92 344.663 -126.893 344.569 C-134.133 344.524 -141.373 344.485 -148.614 344.458 C-154.924 344.435 -161.234 344.402 -167.544 344.356 C-170.885 344.332 -174.227 344.313 -177.569 344.307 C-181.297 344.298 -185.025 344.27 -188.754 344.237 C-189.865 344.239 -190.976 344.24 -192.121 344.242 C-193.135 344.229 -194.149 344.216 -195.193 344.204 C-196.076 344.199 -196.958 344.194 -197.867 344.19 C-200.611 343.719 -201.503 343.057 -203.11 340.805 C-203.401 337.942 -203.509 335.297 -203.482 332.434 C-203.486 331.58 -203.489 330.726 -203.493 329.846 C-203.501 327.02 -203.488 324.194 -203.473 321.367 C-203.473 319.406 -203.473 317.444 -203.475 315.483 C-203.474 311.37 -203.464 307.258 -203.446 303.146 C-203.423 297.869 -203.423 292.593 -203.429 287.317 C-203.433 283.266 -203.426 279.215 -203.416 275.165 C-203.413 273.219 -203.411 271.273 -203.413 269.328 C-203.413 266.61 -203.401 263.893 -203.384 261.176 C-203.387 260.369 -203.389 259.561 -203.392 258.729 C-203.355 254.894 -203.288 253.072 -201.11 249.805 C-194.002 250.092 -188.934 253.421 -182.922 256.992 C-180.972 258.135 -179.02 259.274 -177.067 260.41 C-176.211 260.917 -175.354 261.424 -174.472 261.946 C-169.435 264.731 -164.27 267.256 -159.11 269.805 C-159.537 269.383 -159.963 268.96 -160.403 268.525 C-170.791 258.248 -181.165 247.957 -191.524 237.65 C-196.533 232.666 -201.548 227.687 -206.573 222.719 C-211.421 217.926 -216.256 213.12 -221.084 208.305 C-222.929 206.469 -224.779 204.638 -226.633 202.81 C-229.226 200.253 -231.803 197.681 -234.377 195.105 C-235.15 194.351 -235.922 193.596 -236.718 192.819 C-239.741 189.766 -241.83 187.605 -243.261 183.511 C-243.084 180.337 -242.633 179.442 -240.429 177.199 C-239.776 176.518 -239.123 175.837 -238.45 175.135 C-237.678 174.366 -236.906 173.597 -236.11 172.805 C-235.234 171.902 -234.359 170.999 -233.457 170.069 C-230.334 166.853 -227.173 163.675 -224.008 160.5 C-223.436 159.925 -222.864 159.35 -222.275 158.758 C-219.257 155.725 -216.236 152.695 -213.212 149.667 C-210.098 146.547 -206.992 143.417 -203.889 140.286 C-201.49 137.868 -199.085 135.458 -196.677 133.049 C-195.529 131.897 -194.383 130.743 -193.24 129.587 C-191.644 127.974 -190.039 126.371 -188.432 124.77 C-187.522 123.857 -186.613 122.944 -185.676 122.004 C-183.129 119.821 -181.371 118.567 -178.11 117.805 C-175.584 118.677 -174.404 119.228 -173.173 121.64 C-172.867 122.752 -172.867 122.752 -172.554 123.887 C-172.314 124.728 -172.074 125.569 -171.827 126.435 C-171.585 127.343 -171.343 128.252 -171.094 129.188 C-170.703 130.582 -170.703 130.582 -170.304 132.004 C-169.474 134.975 -168.667 137.952 -167.86 140.93 C-167.301 142.945 -166.741 144.959 -166.18 146.973 C-164.807 151.912 -163.453 156.857 -162.11 161.805 C-162.107 161.2 -162.105 160.596 -162.103 159.973 C-162.043 145.267 -161.968 130.562 -161.874 115.856 C-161.829 108.745 -161.79 101.633 -161.763 94.522 C-161.738 87.662 -161.697 80.802 -161.647 73.942 C-161.63 71.321 -161.618 68.701 -161.612 66.081 C-161.603 62.417 -161.575 58.754 -161.542 55.091 C-161.544 53.457 -161.544 53.457 -161.547 51.791 C-161.528 50.293 -161.528 50.293 -161.509 48.766 C-161.504 47.899 -161.499 47.033 -161.495 46.14 C-161.018 43.25 -160.165 41.878 -158.11 39.805 C-155.167 39.398 -152.593 39.248 -149.647 39.271 C-148.783 39.263 -147.92 39.254 -147.03 39.245 C-144.171 39.222 -141.313 39.229 -138.454 39.238 C-136.47 39.233 -134.486 39.227 -132.502 39.22 C-128.342 39.209 -124.183 39.214 -120.023 39.228 C-114.686 39.246 -109.35 39.222 -104.013 39.187 C-99.916 39.165 -95.819 39.166 -91.722 39.175 C-89.754 39.175 -87.786 39.169 -85.818 39.154 C-83.069 39.136 -80.322 39.151 -77.573 39.174 C-76.348 39.156 -76.348 39.156 -75.098 39.138 C-72.829 39.177 -72.829 39.177 -69.11 39.805 C-67.037 42.188 -67.037 42.188 -66.11 44.805 C-66.804 47.306 -66.804 47.306 -68.309 49.945 C-68.855 50.926 -69.4 51.907 -69.963 52.918 C-70.568 53.953 -71.173 54.988 -71.797 56.055 C-72.396 57.116 -72.994 58.177 -73.611 59.27 C-75.42 62.462 -77.26 65.635 -79.11 68.805 C-79.641 69.723 -80.173 70.642 -80.72 71.588 C-83.477 76.351 -86.272 81.09 -89.11 85.805 C-84.377 82.249 -80.339 78.126 -76.202 73.915 C-74.584 72.277 -72.966 70.64 -71.347 69.002 C-70.495 68.137 -69.642 67.272 -68.764 66.381 C-64.242 61.798 -59.705 57.231 -55.17 52.66 C-49.403 46.846 -43.641 41.027 -37.895 35.192 C-33.247 30.473 -28.584 25.77 -23.911 21.076 C-22.133 19.284 -20.36 17.486 -18.592 15.683 C-16.124 13.167 -13.638 10.67 -11.147 8.177 C-10.419 7.426 -9.691 6.675 -8.941 5.901 C-4.036 1.044 -4.036 1.044 0 0 Z M4.89 100.805 C4.956 101.496 5.023 102.187 5.091 102.899 C5.906 115.159 5.075 125.619 -2.877 135.242 C-6.086 138.849 -9.452 142.262 -12.922 145.617 C-13.609 146.289 -14.296 146.962 -15.003 147.654 C-16.996 149.578 -19.018 151.46 -21.067 153.324 C-21.683 153.897 -22.299 154.469 -22.933 155.059 C-23.524 155.571 -24.114 156.082 -24.722 156.609 C-25.233 157.059 -25.743 157.51 -26.27 157.975 C-29.189 159.292 -31.087 158.688 -34.11 157.805 C-36.54 155.976 -36.54 155.976 -38.922 153.56 C-39.822 152.66 -40.723 151.759 -41.651 150.831 C-42.614 149.842 -43.577 148.853 -44.539 147.863 C-45.539 146.855 -46.539 145.847 -47.54 144.841 C-50.166 142.197 -52.775 139.538 -55.382 136.876 C-58.048 134.159 -60.728 131.456 -63.407 128.752 C-68.655 123.45 -73.887 118.132 -79.11 112.805 C-79.11 116.704 -77.49 117.612 -74.889 120.295 C-67.032 128.69 -65.628 135.618 -65.909 146.906 C-65.996 148.789 -66.084 150.672 -66.172 152.555 C-66.207 154.484 -66.236 156.414 -66.26 158.344 C-66.3 160.18 -66.345 162.016 -66.395 163.852 C-66.428 165.136 -66.428 165.136 -66.462 166.446 C-66.744 172.247 -66.744 172.247 -68.237 174.525 C-71.011 176.421 -73.262 176.206 -76.601 176.237 C-77.255 176.247 -77.909 176.258 -78.582 176.268 C-80.741 176.298 -82.9 176.307 -85.059 176.316 C-86.557 176.333 -88.055 176.351 -89.553 176.371 C-93.493 176.418 -97.434 176.448 -101.374 176.474 C-105.396 176.504 -109.418 176.551 -113.44 176.596 C-121.33 176.682 -129.22 176.749 -137.11 176.805 C-137.11 177.135 -137.11 177.465 -137.11 177.805 C-136.516 177.829 -135.921 177.853 -135.309 177.877 C-132.573 178.007 -129.843 178.187 -127.11 178.367 C-126.175 178.404 -125.241 178.441 -124.278 178.479 C-116.686 179.036 -113.289 181.426 -108.11 186.805 C-106.687 188.155 -105.263 189.505 -103.835 190.85 C-101.759 192.819 -99.719 194.823 -97.68 196.83 C-96.625 197.863 -95.564 198.89 -94.497 199.91 C-92.937 201.404 -91.397 202.916 -89.86 204.434 C-88.491 205.765 -88.491 205.765 -87.094 207.123 C-84.652 210.423 -84.618 211.777 -85.11 215.805 C-86.818 218.235 -86.818 218.235 -89.241 220.617 C-90.142 221.517 -91.043 222.418 -91.971 223.346 C-92.965 224.309 -93.959 225.272 -94.954 226.234 C-95.964 227.233 -96.973 228.234 -97.98 229.235 C-100.63 231.863 -103.298 234.472 -105.97 237.077 C-108.695 239.741 -111.404 242.422 -114.114 245.102 C-119.429 250.353 -124.763 255.585 -130.11 260.805 C-129.12 260.805 -128.13 260.805 -127.11 260.805 C-125.54 259.163 -123.984 257.508 -122.434 255.848 C-113.696 247.748 -102.04 249.701 -90.922 250.117 C-88.721 250.159 -86.52 250.196 -84.319 250.229 C-80.327 250.303 -76.337 250.39 -72.347 250.533 C-71.551 250.561 -70.754 250.588 -69.934 250.617 C-68.11 250.805 -68.11 250.805 -67.11 251.805 C-66.985 254.146 -66.924 256.46 -66.904 258.803 C-66.895 259.535 -66.885 260.266 -66.874 261.02 C-66.843 263.45 -66.818 265.879 -66.793 268.309 C-66.773 269.989 -66.752 271.669 -66.73 273.349 C-66.675 277.779 -66.626 282.21 -66.578 286.641 C-66.527 291.158 -66.472 295.676 -66.416 300.193 C-66.309 309.064 -66.207 317.934 -66.11 326.805 C-65.78 326.805 -65.45 326.805 -65.11 326.805 C-65.135 326.012 -65.161 325.22 -65.187 324.403 C-65.345 307.706 -63.036 295.833 -51.107 283.61 C-49.823 282.355 -48.533 281.107 -47.235 279.867 C-46.598 279.253 -45.961 278.638 -45.304 278.004 C-43.457 276.25 -41.582 274.536 -39.68 272.84 C-39.111 272.326 -38.542 271.812 -37.956 271.282 C-35.46 269.177 -33.37 267.872 -30.199 267.053 C-25.353 268.233 -22.59 271.355 -19.11 274.805 C-18.408 275.485 -17.705 276.166 -16.982 276.867 C-14.713 279.086 -12.471 281.33 -10.235 283.582 C-9.02 284.799 -9.02 284.799 -7.78 286.041 C-5.221 288.606 -2.665 291.174 -0.11 293.742 C1.636 295.493 3.382 297.244 5.128 298.994 C9.385 303.262 13.639 307.532 17.89 311.805 C17.89 308.026 16.535 307.271 14.015 304.671 C6.458 296.559 5.585 289.56 5.875 278.742 C5.962 276.846 6.051 274.951 6.14 273.055 C6.187 271.112 6.229 269.169 6.265 267.227 C6.588 253.408 6.588 253.408 7.89 250.805 C33.3 250.475 58.71 250.145 84.89 249.805 C84.89 249.475 84.89 249.145 84.89 248.805 C84.068 248.724 83.246 248.644 82.399 248.561 C78.666 248.192 74.935 247.811 71.203 247.43 C69.909 247.303 68.616 247.177 67.283 247.047 C66.036 246.918 64.788 246.789 63.503 246.656 C61.783 246.484 61.783 246.484 60.028 246.307 C53.403 245.246 50.113 242.476 45.531 237.844 C44.941 237.257 44.351 236.67 43.743 236.065 C42.503 234.826 41.266 233.584 40.032 232.338 C38.143 230.433 36.238 228.544 34.332 226.656 C33.126 225.449 31.922 224.241 30.718 223.031 C30.149 222.468 29.579 221.904 28.992 221.323 C24.152 216.396 24.152 216.396 23.89 212.805 C25.682 209.033 28.143 206.307 31.086 203.382 C31.927 202.541 32.768 201.701 33.634 200.835 C34.537 199.942 35.44 199.049 36.371 198.129 C37.299 197.204 38.227 196.279 39.183 195.325 C41.639 192.876 44.102 190.434 46.566 187.992 C49.083 185.495 51.595 182.992 54.107 180.49 C59.029 175.59 63.958 170.695 68.89 165.805 C67.9 165.805 66.91 165.805 65.89 165.805 C64.282 167.44 62.693 169.095 61.113 170.758 C52.655 178.545 42.114 176.962 31.328 176.555 C29.288 176.522 27.248 176.493 25.209 176.469 C21.498 176.401 17.788 176.332 14.079 176.191 C13.341 176.165 12.602 176.139 11.841 176.113 C9.89 175.805 9.89 175.805 6.89 173.805 C6.491 170.793 6.491 170.793 6.458 166.877 C6.443 165.808 6.443 165.808 6.427 164.718 C6.397 162.359 6.388 160 6.378 157.641 C6.362 156.007 6.344 154.373 6.324 152.739 C6.276 148.435 6.247 144.132 6.221 139.827 C6.191 135.437 6.144 131.047 6.099 126.656 C6.013 118.039 5.946 109.422 5.89 100.805 C5.56 100.805 5.23 100.805 4.89 100.805 Z " fill="#8C8F90" transform="translate(330.1097869873047,-0.804779052734375)"/>
<path d="M0 0 C1.348 0.002 1.348 0.002 2.723 0.004 C3.741 0.001 4.758 -0.002 5.807 -0.005 C7.46 0.006 7.46 0.006 9.146 0.017 C10.273 0.017 11.4 0.018 12.561 0.018 C14.946 0.021 17.331 0.029 19.716 0.041 C23.381 0.06 27.046 0.062 30.711 0.062 C33.023 0.067 35.335 0.072 37.646 0.079 C38.751 0.08 39.855 0.081 40.992 0.083 C42.514 0.092 42.514 0.092 44.067 0.102 C44.964 0.106 45.862 0.11 46.787 0.114 C48.83 0.247 48.83 0.247 49.83 1.247 C49.929 3.412 49.96 5.58 49.955 7.747 C49.959 9.526 49.959 9.526 49.963 11.341 C49.83 14.247 49.83 14.247 48.83 15.247 C46.236 15.336 43.67 15.362 41.076 15.345 C40.301 15.343 39.525 15.342 38.726 15.341 C36.24 15.335 33.754 15.322 31.268 15.31 C29.586 15.305 27.904 15.3 26.223 15.296 C22.092 15.285 17.961 15.268 13.83 15.247 C13.83 19.867 13.83 24.487 13.83 29.247 C15.591 29.189 17.352 29.131 19.166 29.071 C21.512 29.025 23.859 28.979 26.205 28.935 C27.361 28.893 28.518 28.851 29.709 28.808 C38.333 28.686 45.174 30.065 51.735 35.958 C56.487 40.924 58.89 46.722 59.268 53.56 C58.968 60.791 56.596 67.785 51.705 73.185 C42.372 81.054 32.209 80.852 20.578 80.714 C17.874 80.685 15.172 80.693 12.469 80.706 C10.747 80.7 9.025 80.692 7.303 80.681 C6.496 80.684 5.69 80.687 4.86 80.69 C-0.613 80.597 -0.613 80.597 -2.882 79.172 C-4.874 76.195 -4.544 73.603 -4.542 70.054 C-4.546 69.325 -4.55 68.596 -4.553 67.845 C-4.561 65.436 -4.548 63.028 -4.533 60.618 C-4.533 58.946 -4.533 57.273 -4.535 55.601 C-4.535 52.096 -4.524 48.592 -4.506 45.087 C-4.483 40.589 -4.483 36.091 -4.49 31.592 C-4.493 28.14 -4.486 24.687 -4.477 21.234 C-4.473 19.575 -4.472 17.916 -4.473 16.257 C-4.473 13.941 -4.461 11.627 -4.445 9.311 C-4.44 7.993 -4.435 6.674 -4.431 5.315 C-4.129 1.77 -3.686 0.42 0 0 Z M13.83 44.247 C13.83 50.847 13.83 57.447 13.83 64.247 C16.841 64.35 19.853 64.453 22.955 64.56 C23.892 64.605 24.83 64.651 25.795 64.698 C30.096 64.769 32.971 64.631 36.385 61.853 C39.041 59.022 39.743 58.23 40.08 54.435 C39.795 50.806 39.052 49.104 36.83 46.247 C33.892 44.431 31.712 44.006 28.283 44.052 C27.141 44.059 27.141 44.059 25.976 44.067 C25.02 44.085 24.065 44.103 23.08 44.122 C20.028 44.163 16.975 44.205 13.83 44.247 Z " fill="#8C9090" transform="translate(67.16993713378906,447.7527618408203)"/>
<path d="M0 0 C1.487 -0.019 1.487 -0.019 3.003 -0.038 C4.072 -0.036 5.141 -0.033 6.242 -0.03 C7.341 -0.035 8.439 -0.04 9.571 -0.045 C11.894 -0.052 14.218 -0.051 16.541 -0.042 C20.103 -0.033 23.664 -0.062 27.227 -0.094 C29.482 -0.096 31.737 -0.095 33.992 -0.092 C35.595 -0.109 35.595 -0.109 37.231 -0.126 C38.718 -0.112 38.718 -0.112 40.234 -0.098 C41.543 -0.097 41.543 -0.097 42.878 -0.097 C45.117 0.404 45.117 0.404 46.9 1.978 C48.533 5.232 48.521 8.169 48.474 11.727 C48.476 12.458 48.478 13.188 48.48 13.941 C48.483 16.349 48.464 18.757 48.445 21.166 C48.442 22.839 48.44 24.513 48.44 26.186 C48.435 29.689 48.421 33.192 48.398 36.694 C48.37 41.194 48.359 45.693 48.355 50.193 C48.351 53.646 48.341 57.098 48.329 60.551 C48.323 62.211 48.318 63.871 48.315 65.531 C48.308 67.844 48.294 70.156 48.278 72.469 C48.271 73.787 48.265 75.105 48.258 76.463 C48.117 79.404 48.117 79.404 47.117 80.404 C44.44 80.504 41.794 80.543 39.117 80.529 C37.992 80.535 37.992 80.535 36.844 80.541 C31.244 80.531 31.244 80.531 30.117 79.404 C30.023 77.44 30 75.473 30.004 73.507 C30.004 72.246 30.004 70.985 30.004 69.685 C30.009 68.299 30.014 66.912 30.02 65.525 C30.021 64.114 30.023 62.703 30.024 61.292 C30.028 57.572 30.037 53.851 30.049 50.131 C30.059 46.337 30.063 42.544 30.068 38.75 C30.079 31.301 30.097 23.853 30.117 16.404 C22.857 16.404 15.597 16.404 8.117 16.404 C8.158 18.446 8.2 20.488 8.242 22.592 C8.487 61.969 8.487 61.969 -3.328 74.998 C-8.994 80.1 -14.601 80.774 -21.883 80.404 C-22.883 79.404 -22.883 79.404 -22.98 76.244 C-22.963 74.312 -22.963 74.312 -22.945 72.342 C-22.936 71.051 -22.927 69.761 -22.918 68.431 C-22.906 67.432 -22.895 66.433 -22.883 65.404 C-21.452 64.716 -21.452 64.716 -19.992 64.013 C-15.709 61.797 -14.425 59.973 -12.865 55.456 C-11.496 50.492 -11.263 45.444 -10.918 40.326 C-10.756 38.175 -10.594 36.024 -10.432 33.873 C-10.185 30.5 -9.943 27.127 -9.708 23.754 C-9.478 20.485 -9.23 17.218 -8.98 13.951 C-8.882 12.432 -8.882 12.432 -8.781 10.883 C-8.671 9.475 -8.671 9.475 -8.559 8.04 C-8.471 6.802 -8.471 6.802 -8.382 5.54 C-7.266 0.763 -4.562 0.028 0 0 Z " fill="#8D9090" transform="translate(211.8828125,447.595947265625)"/>
<path d="M0 0 C1.582 0.006 3.164 0.019 4.746 0.035 C7.53 0.056 10.315 0.076 13.184 0.098 C13.184 10.328 13.184 20.558 13.184 31.098 C22.244 29.905 22.244 29.905 31.184 28.098 C32.869 24.846 33.724 21.365 34.656 17.832 C34.916 16.86 35.176 15.888 35.443 14.887 C35.983 12.845 36.522 10.803 37.061 8.762 C37.319 7.795 37.577 6.828 37.844 5.832 C38.077 4.947 38.311 4.063 38.551 3.151 C39.184 1.098 39.184 1.098 40.184 0.098 C43.046 0.024 45.884 0.005 48.746 0.035 C49.552 0.04 50.359 0.044 51.189 0.049 C53.188 0.061 55.186 0.079 57.184 0.098 C56.552 6.085 55.439 11.772 53.934 17.598 C53.742 18.401 53.549 19.204 53.352 20.031 C51.662 26.586 49.016 32.266 44.184 37.098 C45.297 37.624 45.297 37.624 46.434 38.16 C51.964 42.056 53.737 48.168 55.359 54.492 C55.621 55.502 55.621 55.502 55.887 56.533 C56.249 57.941 56.606 59.35 56.958 60.76 C57.5 62.925 58.06 65.085 58.623 67.244 C61.322 77.82 61.322 77.82 60.184 80.098 C54.574 80.098 48.964 80.098 43.184 80.098 C42.713 78.53 42.243 76.963 41.758 75.348 C41.129 73.264 40.5 71.181 39.871 69.098 C39.562 68.068 39.254 67.038 38.936 65.977 C38.038 63.01 37.119 60.052 36.184 57.098 C35.933 56.296 35.682 55.494 35.424 54.668 C33.919 50.217 33.123 49.052 29.184 46.098 C23.904 45.768 18.624 45.438 13.184 45.098 C13.184 56.648 13.184 68.198 13.184 80.098 C7.574 80.098 1.964 80.098 -3.816 80.098 C-5.51 78.404 -4.942 76.295 -4.952 74.034 C-4.95 73.31 -4.948 72.586 -4.946 71.84 C-4.948 71.081 -4.949 70.321 -4.951 69.539 C-4.956 67.017 -4.953 64.495 -4.949 61.973 C-4.95 60.228 -4.951 58.483 -4.952 56.738 C-4.954 53.076 -4.951 49.414 -4.947 45.752 C-4.941 41.047 -4.944 36.343 -4.95 31.638 C-4.954 28.033 -4.953 24.428 -4.95 20.824 C-4.95 19.089 -4.95 17.353 -4.953 15.618 C-4.955 13.197 -4.951 10.776 -4.946 8.355 C-4.948 7.631 -4.95 6.907 -4.952 6.161 C-4.926 0.126 -4.926 0.126 0 0 Z " fill="#8C8F90" transform="translate(273.81640625,447.90234375)"/>
<path d="M0 0 C1.111 -0.001 1.111 -0.001 2.244 -0.002 C3.008 0.018 3.772 0.038 4.559 0.059 C5.326 0.052 6.094 0.044 6.885 0.037 C12.425 0.1 12.425 0.1 14.578 1.594 C16.581 4.281 17.521 7.218 18.556 10.367 C18.792 11.061 19.028 11.756 19.271 12.472 C20.048 14.766 20.812 17.064 21.574 19.363 C22.11 20.961 22.646 22.559 23.183 24.157 C24.305 27.506 25.42 30.857 26.531 34.209 C27.955 38.504 29.398 42.792 30.846 47.078 C31.958 50.376 33.058 53.678 34.155 56.981 C34.683 58.564 35.214 60.145 35.749 61.725 C36.495 63.935 37.227 66.15 37.954 68.367 C38.177 69.017 38.401 69.668 38.631 70.338 C39.964 74.473 39.897 75.99 38.996 80.496 C33.386 80.496 27.776 80.496 21.996 80.496 C19.418 74.426 17.948 70.156 16.996 63.496 C4.621 63.991 4.621 63.991 -8.004 64.496 C-9.608 69.386 -9.608 69.386 -11.205 74.279 C-12.893 79.385 -12.893 79.385 -14.004 80.496 C-16.867 80.569 -19.705 80.588 -22.566 80.559 C-23.373 80.554 -24.179 80.55 -25.01 80.545 C-27.008 80.533 -29.006 80.515 -31.004 80.496 C-32.598 76.522 -31.286 73.346 -29.978 69.496 C-29.75 68.8 -29.523 68.103 -29.288 67.386 C-28.534 65.086 -27.763 62.791 -26.992 60.496 C-26.462 58.897 -25.932 57.298 -25.402 55.699 C-24.29 52.348 -23.17 48.999 -22.045 45.652 C-20.605 41.367 -19.186 37.075 -17.772 32.78 C-16.681 29.476 -15.58 26.176 -14.475 22.877 C-13.947 21.296 -13.423 19.714 -12.902 18.131 C-12.172 15.915 -11.427 13.705 -10.677 11.496 C-10.465 10.844 -10.254 10.191 -10.036 9.519 C-8.252 4.347 -5.93 -0.016 0 0 Z M3.996 20.496 C2.844 24.202 1.701 27.912 0.559 31.621 C0.07 33.191 0.07 33.191 -0.428 34.793 C-0.74 35.811 -1.053 36.83 -1.375 37.879 C-1.663 38.811 -1.951 39.743 -2.248 40.704 C-3.029 43.588 -3.513 46.548 -4.004 49.496 C1.276 49.496 6.556 49.496 11.996 49.496 C10.227 39.685 7.584 30.116 4.996 20.496 C4.666 20.496 4.336 20.496 3.996 20.496 Z " fill="#8D9091" transform="translate(368.00390625,447.50390625)"/>
<path d="M0 0 C1.322 -0.001 1.322 -0.001 2.67 -0.003 C4.531 -0.004 6.392 -0.002 8.253 0.002 C11.113 0.008 13.972 0.002 16.832 -0.004 C18.638 -0.003 20.444 -0.002 22.25 0 C23.541 -0.003 23.541 -0.003 24.857 -0.006 C30.877 0.018 30.877 0.018 31.992 1.133 C32.065 3.486 32.076 5.841 32.055 8.195 C32.046 9.486 32.037 10.776 32.027 12.105 C32.016 13.104 32.004 14.104 31.992 15.133 C31.013 15.153 30.035 15.172 29.026 15.193 C25.388 15.269 21.751 15.358 18.113 15.45 C16.54 15.488 14.966 15.523 13.393 15.555 C11.129 15.6 8.865 15.658 6.602 15.719 C5.9 15.73 5.199 15.742 4.477 15.754 C0.546 15.872 -1.379 16.319 -5.008 18.133 C-5.338 21.763 -5.668 25.393 -6.008 29.133 C5.212 29.133 16.432 29.133 27.992 29.133 C27.992 33.753 27.992 38.373 27.992 43.133 C26.992 44.133 26.992 44.133 23.849 44.246 C22.458 44.246 21.067 44.24 19.676 44.23 C18.945 44.229 18.214 44.228 17.46 44.226 C15.117 44.221 12.773 44.208 10.43 44.195 C8.844 44.19 7.259 44.186 5.674 44.182 C1.78 44.171 -2.114 44.152 -6.008 44.133 C-5.678 50.403 -5.348 56.673 -5.008 63.133 C-2.421 63.193 0.166 63.254 2.832 63.316 C5.327 63.378 7.823 63.442 10.318 63.505 C12.057 63.549 13.797 63.59 15.536 63.63 C18.031 63.688 20.525 63.751 23.02 63.816 C24.193 63.841 24.193 63.841 25.39 63.867 C30.878 64.019 30.878 64.019 31.992 65.133 C32.091 67.464 32.122 69.799 32.117 72.133 C32.121 74.051 32.121 74.051 32.125 76.008 C31.992 79.133 31.992 79.133 30.992 80.133 C28.201 80.271 25.437 80.346 22.645 80.371 C21.377 80.383 21.377 80.383 20.083 80.396 C18.287 80.409 16.49 80.42 14.694 80.428 C11.965 80.445 9.238 80.489 6.51 80.533 C4.763 80.543 3.016 80.552 1.27 80.559 C0.461 80.576 -0.348 80.594 -1.181 80.612 C-7.982 80.586 -13.189 78.652 -18.285 74.098 C-19.107 73.094 -19.107 73.094 -19.945 72.07 C-20.794 71.063 -20.794 71.063 -21.66 70.035 C-23.927 66.836 -24.139 64.1 -24.169 60.298 C-24.183 58.825 -24.183 58.825 -24.198 57.324 C-24.202 56.264 -24.207 55.205 -24.211 54.113 C-24.217 53.022 -24.222 51.931 -24.228 50.806 C-24.238 48.495 -24.244 46.185 -24.248 43.874 C-24.258 40.345 -24.289 36.816 -24.32 33.287 C-24.327 31.042 -24.332 28.796 -24.336 26.551 C-24.348 25.497 -24.361 24.444 -24.373 23.359 C-24.352 16.273 -23.467 11.844 -18.57 6.445 C-12.385 0.864 -8.292 -0.02 0 0 Z " fill="#8C9090" transform="translate(154.0078125,447.8671875)"/>
<path d="M0 0 C0.86 -0.006 1.72 -0.012 2.606 -0.019 C4.429 -0.026 6.252 -0.023 8.075 -0.01 C10.837 0.004 13.596 -0.03 16.357 -0.068 C26.592 -0.114 35.229 0.034 43.187 7.276 C48.4 12.635 50.427 18.63 50.746 26.004 C50.525 33.587 47.604 40.116 42.309 45.566 C34.391 51.591 27.552 51.839 17.934 51.691 C16.816 51.682 15.698 51.673 14.547 51.664 C11.801 51.641 9.055 51.608 6.309 51.566 C6.316 52.831 6.316 52.831 6.324 54.121 C6.341 57.239 6.354 60.356 6.364 63.474 C6.369 64.826 6.375 66.177 6.384 67.528 C6.396 69.467 6.401 71.405 6.406 73.344 C6.414 75.095 6.414 75.095 6.422 76.883 C6.309 79.566 6.309 79.566 5.309 80.566 C2.631 80.666 -0.014 80.705 -2.691 80.691 C-3.817 80.697 -3.817 80.697 -4.965 80.703 C-10.565 80.693 -10.565 80.693 -11.691 79.566 C-11.802 77.257 -11.841 74.944 -11.853 72.632 C-11.858 71.906 -11.862 71.181 -11.868 70.434 C-11.882 68.024 -11.889 65.613 -11.895 63.203 C-11.9 61.533 -11.906 59.862 -11.912 58.192 C-11.922 54.683 -11.928 51.175 -11.932 47.667 C-11.937 43.171 -11.961 38.675 -11.99 34.179 C-12.008 30.727 -12.013 27.274 -12.015 23.821 C-12.018 22.163 -12.026 20.506 -12.039 18.848 C-12.056 16.529 -12.054 14.209 -12.048 11.889 C-12.057 11.204 -12.066 10.519 -12.076 9.813 C-12.05 6.843 -11.807 4.786 -10.41 2.142 C-7.475 -0.549 -3.78 -0.023 0 0 Z M6.309 15.566 C6.309 22.166 6.309 28.766 6.309 35.566 C9.34 35.649 12.372 35.731 15.496 35.816 C16.443 35.853 17.389 35.889 18.364 35.927 C22.421 35.98 24.765 35.876 28.355 33.828 C31.014 30.749 31.283 28.711 31.504 24.754 C31.193 21.275 29.934 19.788 27.309 17.566 C22.65 15.603 18.415 15.317 13.434 15.441 C9.907 15.503 9.907 15.503 6.309 15.566 Z " fill="#8C9090" transform="translate(423.69140625,447.43359375)"/>
<path d="M0 0 C1.099 0.002 2.198 0.004 3.331 0.007 C4.572 0.007 5.813 0.007 7.092 0.007 C8.457 0.012 9.821 0.017 11.186 0.023 C12.575 0.024 13.963 0.026 15.352 0.027 C19.013 0.031 22.674 0.041 26.335 0.052 C30.069 0.062 33.802 0.066 37.536 0.071 C44.866 0.082 52.196 0.1 59.526 0.12 C59.526 5.07 59.526 10.02 59.526 15.12 C52.266 15.12 45.006 15.12 37.526 15.12 C37.531 17.018 37.536 18.916 37.542 20.872 C37.558 27.134 37.569 33.397 37.578 39.659 C37.583 43.457 37.59 47.255 37.601 51.053 C37.612 54.716 37.618 58.38 37.621 62.043 C37.623 63.443 37.626 64.842 37.632 66.241 C37.639 68.198 37.639 70.154 37.64 72.11 C37.642 73.225 37.644 74.339 37.646 75.488 C37.526 78.12 37.526 78.12 36.526 80.12 C30.916 80.12 25.306 80.12 19.526 80.12 C19.526 58.67 19.526 37.22 19.526 15.12 C12.266 15.12 5.006 15.12 -2.474 15.12 C-3.474 14.12 -3.474 14.12 -3.607 11.214 C-3.604 10.028 -3.602 8.842 -3.599 7.62 C-3.602 6.434 -3.604 5.248 -3.607 4.027 C-3.43 0.167 -3.43 0.167 0 0 Z " fill="#8D8F90" transform="translate(477.47401428222656,447.87974548339844)"/>
<path d="M0 0 C1.65 0 3.3 0 5 0 C5.208 0.699 5.415 1.397 5.629 2.117 C7.174 7.366 7.174 7.366 10.824 11.109 C12.947 11.728 12.947 11.728 16 12 C16 8.04 16 4.08 16 0 C17.98 0 19.96 0 22 0 C22 3.96 22 7.92 22 12 C25.731 11.58 25.731 11.58 29 10 C30.83 6.815 31.957 3.513 33 0 C34.65 0 36.3 0 38 0 C37.66 5.38 37.314 9.533 34 14 C34.46 14.557 34.92 15.114 35.395 15.688 C37.087 18.125 37.869 20.159 38.688 23 C38.939 23.846 39.19 24.691 39.449 25.562 C40 28 40 28 40 32 C38.35 32 36.7 32 35 32 C34.567 30.969 34.134 29.938 33.688 28.875 C33.408 28.239 33.128 27.604 32.84 26.949 C32.093 25.216 31.416 23.453 30.75 21.688 C28.852 18.13 28.852 18.13 22 17 C22 21.95 22 26.9 22 32 C20.02 32 18.04 32 16 32 C16 27.05 16 22.1 16 17 C8.995 18.111 8.995 18.111 7.188 22.25 C6.796 23.487 6.404 24.725 6 26 C5.608 27.134 5.216 28.269 4.812 29.438 C4.544 30.283 4.276 31.129 4 32 C2.02 32 0.04 32 -2 32 C-1.31 25.373 0.277 19.585 4 14 C3.526 13.361 3.051 12.721 2.562 12.062 C0.53 8.078 0.279 4.415 0 0 Z " fill="#8C9090" transform="translate(383,568)"/>
<path d="M0 0 C-0.33 1.65 -0.66 3.3 -1 5 C-2.23 5.255 -2.23 5.255 -3.484 5.516 C-5.101 5.879 -5.101 5.879 -6.75 6.25 C-7.817 6.482 -8.885 6.714 -9.984 6.953 C-13.319 8.111 -14.804 9.27 -17 12 C-17.33 12.99 -17.66 13.98 -18 15 C-17.196 14.649 -16.391 14.299 -15.562 13.938 C-11.105 12.764 -7.422 12.583 -3 14 C0.096 16.444 1.751 19.254 3 23 C3.531 28.935 3.576 33.993 0 39 C-3.691 42.507 -6.612 43.284 -11.562 43.438 C-15.809 43.259 -18.791 43.008 -22 40 C-25.155 34.952 -25.462 30.89 -25.375 25.125 C-25.387 24.361 -25.398 23.596 -25.41 22.809 C-25.376 16.114 -23.988 10.631 -19.875 5.188 C-14.713 1.26 -6.359 -2.12 0 0 Z M-19 21 C-19.568 28.85 -19.568 28.85 -17.438 36.25 C-14.059 38.675 -12.068 38.654 -8 38 C-5.635 36.133 -4.34 34.679 -3 32 C-2.725 27.805 -2.622 24.987 -4.125 21.062 C-5.891 18.798 -5.891 18.798 -8.75 18 C-12.927 18 -15.283 19.142 -19 21 Z " fill="#8C9091" transform="translate(309,557)"/>
<path d="M0 0 C0.33 1.65 0.66 3.3 1 5 C-0.048 5.291 -1.096 5.583 -2.176 5.883 C-3.555 6.296 -4.934 6.71 -6.312 7.125 C-7.003 7.313 -7.693 7.501 -8.404 7.695 C-12.286 8.896 -13.801 9.681 -15.98 13.18 C-16.485 14.576 -16.485 14.576 -17 16 C-16.361 15.649 -15.721 15.299 -15.062 14.938 C-10.822 13.64 -7.282 13.935 -3 15 C0.39 16.948 1.664 18.28 3.312 21.812 C4.734 28.401 4.334 34.112 1 40 C-2.673 43.768 -5.917 44.317 -11 44.562 C-14.933 44.435 -17.578 44.172 -20.688 41.688 C-24.785 36.926 -24.215 32.286 -24.25 26.312 C-24.271 25.439 -24.291 24.566 -24.312 23.666 C-24.355 16.506 -23.404 10.774 -18.562 5.188 C-13.524 1.421 -6.188 0 0 0 Z M-18 22 C-19.191 28.33 -19.194 32.321 -16 38 C-12.908 39.546 -10.406 39.294 -7 39 C-4.396 37.356 -3.313 36.103 -2.469 33.129 C-1.771 28.936 -1.75 25.75 -4 22 C-8.951 17.368 -12.275 19.408 -18 22 Z " fill="#8C8F90" transform="translate(229,556)"/>
<path d="M0 0 C1.98 0 3.96 0 6 0 C6.33 6.6 6.66 13.2 7 20 C7.88 18.556 8.761 17.112 9.668 15.625 C10.84 13.749 12.013 11.874 13.188 10 C13.766 9.046 14.344 8.092 14.939 7.109 C15.51 6.207 16.08 5.305 16.668 4.375 C17.446 3.118 17.446 3.118 18.239 1.836 C20 0 20 0 22.646 -0.336 C25 0 25 0 26 1 C26.088 3.292 26.107 5.586 26.098 7.879 C26.096 8.566 26.095 9.252 26.093 9.96 C26.088 12.161 26.075 14.362 26.062 16.562 C26.057 18.051 26.053 19.54 26.049 21.029 C26.038 24.686 26.021 28.343 26 32 C24.35 32 22.7 32 21 32 C20.67 25.07 20.34 18.14 20 11 C16.554 16.411 16.554 16.411 13.12 21.829 C7.931 29.913 7.931 29.913 5 32 C3.35 31.67 1.7 31.34 0 31 C0 20.77 0 10.54 0 0 Z " fill="#8C9090" transform="translate(350,568)"/>
<path d="M0 0 C3.669 1.859 5.681 4.042 7 8 C7.232 10.723 7.131 13.25 7 16 C5 18 5 18 3.029 18.227 C2.243 18.217 1.458 18.206 0.648 18.195 C-0.202 18.189 -1.053 18.182 -1.93 18.176 C-3.264 18.151 -3.264 18.151 -4.625 18.125 C-5.971 18.111 -5.971 18.111 -7.344 18.098 C-9.563 18.074 -11.781 18.041 -14 18 C-11.887 22.708 -11.887 22.708 -8 26 C-5.246 26.025 -5.246 26.025 -2.312 25.625 C-1.319 25.514 -0.325 25.403 0.699 25.289 C1.458 25.194 2.218 25.098 3 25 C3.66 26.65 4.32 28.3 5 30 C1.631 32.028 -1.032 32.298 -4.938 32.312 C-5.957 32.329 -6.977 32.346 -8.027 32.363 C-12.264 31.845 -14.912 30.205 -17.75 27.062 C-20.689 22.213 -20.594 16.503 -20 11 C-18.744 6.939 -16.986 3.957 -13.938 1 C-9.281 -0.585 -4.854 -0.775 0 0 Z M-11.312 6.75 C-13.299 9.095 -13.299 9.095 -14 13 C-9.05 13 -4.1 13 1 13 C0.67 11.02 0.34 9.04 0 7 C-4.089 4.274 -7.247 3.673 -11.312 6.75 Z " fill="#8C9090" transform="translate(257,568)"/>
<path d="M0 0 C3.067 1.252 4.404 2.018 6.105 4.82 C7.101 7.246 7.267 9.012 7.25 11.625 C7.255 12.401 7.26 13.177 7.266 13.977 C7 16 7 16 5 18 C3.121 18.319 3.121 18.319 0.867 18.414 C0.062 18.453 -0.744 18.491 -1.574 18.531 C-2.837 18.578 -2.837 18.578 -4.125 18.625 C-4.974 18.664 -5.824 18.702 -6.699 18.742 C-8.799 18.837 -10.9 18.919 -13 19 C-11.312 23.231 -11.312 23.231 -8 26 C-5.161 25.785 -2.355 25.419 0.469 25.059 C1.722 25.03 1.722 25.03 3 25 C3.66 25.66 4.32 26.32 5 27 C4.812 29.062 4.812 29.062 4 31 C-2.03 33.01 -8.684 32.934 -14.562 30.562 C-18.525 26.397 -19.931 22.098 -20.059 16.367 C-19.62 10.109 -18.109 6.439 -14 1.688 C-9.439 -0.878 -5.116 -0.639 0 0 Z M-11.438 7.312 C-13.251 9.914 -13.251 9.914 -13 13 C-8.05 13 -3.1 13 2 13 C0.596 7.298 0.596 7.298 -2 5 C-6.343 4.437 -8.19 4.232 -11.438 7.312 Z " fill="#8C9090" transform="translate(446,568)"/>
<path d="M0 0 C3.067 1.252 4.404 2.018 6.105 4.82 C7.101 7.246 7.267 9.012 7.25 11.625 C7.255 12.401 7.26 13.177 7.266 13.977 C7 16 7 16 5 18 C3.121 18.227 3.121 18.227 0.867 18.195 C0.062 18.189 -0.744 18.182 -1.574 18.176 C-2.416 18.159 -3.258 18.142 -4.125 18.125 C-5.399 18.111 -5.399 18.111 -6.699 18.098 C-8.8 18.074 -10.9 18.038 -13 18 C-11.474 22.811 -11.474 22.811 -8 26 C-4.752 26.12 -1.838 26.227 1.312 25.375 C1.869 25.251 2.426 25.128 3 25 C3.66 25.66 4.32 26.32 5 27 C4.812 29.062 4.812 29.062 4 31 C-1.23 32.743 -7.808 33.173 -13.051 31.246 C-16.755 28.902 -18.491 26.146 -19.484 21.957 C-20.267 15.641 -20.434 9.531 -16.691 4.102 C-11.858 -0.837 -6.6 -1.03 0 0 Z M-11.438 7.312 C-13.251 9.914 -13.251 9.914 -13 13 C-8.05 13 -3.1 13 2 13 C1.378 8.373 1.378 8.373 -0.125 6.188 C-4.263 3.567 -7.982 4.035 -11.438 7.312 Z " fill="#8C9091" transform="translate(193,568)"/>
<path d="M0 0 C3.146 -0.029 6.292 -0.047 9.438 -0.062 C10.335 -0.071 11.233 -0.079 12.158 -0.088 C13.012 -0.091 13.866 -0.094 14.746 -0.098 C15.932 -0.106 15.932 -0.106 17.142 -0.114 C19 0 19 0 20 1 C20.088 3.292 20.107 5.586 20.098 7.879 C20.096 8.566 20.095 9.252 20.093 9.96 C20.088 12.161 20.075 14.362 20.062 16.562 C20.057 18.051 20.053 19.54 20.049 21.029 C20.038 24.686 20.021 28.343 20 32 C18.334 32.043 16.666 32.041 15 32 C14 31 14 31 13.886 28.592 C13.892 27.549 13.897 26.507 13.902 25.434 C13.906 24.309 13.909 23.184 13.912 22.025 C13.92 20.841 13.929 19.657 13.938 18.438 C13.942 17.25 13.947 16.062 13.951 14.838 C13.963 11.892 13.979 8.946 14 6 C10.7 6 7.4 6 4 6 C3.963 6.99 3.925 7.98 3.887 9 C3.121 25.567 3.121 25.567 -1.875 31.062 C-4.621 32.274 -6.177 31.862 -9 31 C-8.365 27.317 -8.365 27.317 -6.562 25.75 C-2.264 20.936 -2.66 12.84 -2.344 6.734 C-2.001 4.008 -1.279 2.391 0 0 Z " fill="#8C9090" transform="translate(323,568)"/>
<path d="M0 0 C10.23 0 20.46 0 31 0 C31 1.98 31 3.96 31 6 C26.71 6 22.42 6 18 6 C18 17.88 18 29.76 18 42 C16.35 42 14.7 42 13 42 C12 41 12 41 11.886 37.674 C11.887 36.198 11.892 34.722 11.902 33.246 C11.904 32.471 11.905 31.695 11.907 30.896 C11.912 28.41 11.925 25.924 11.938 23.438 C11.943 21.756 11.947 20.074 11.951 18.393 C11.962 14.262 11.979 10.131 12 6 C8.04 6 4.08 6 0 6 C0 4.02 0 2.04 0 0 Z " fill="#8C9090" transform="translate(140,558)"/>
</svg>