<svg version="1.1" xmlns="http://www.w3.org/2000/svg" width="512px" height="512px" transform="rotate(0) scale(1, 1)">
<path d="M0 0 C44.74561703 40.75358172 67.03193876 96.65274076 69.94042969 156.36962891 C71.14228775 214.83648888 47.55758607 270.09626233 7.48730469 312.06103516 C-32.33870728 352.98675588 -87.63172386 375.83335271 -144.51928711 376.83251953 C-203.96297847 377.20752573 -258.97066485 353.97566028 -301.39453125 312.68530273 C-342.16817484 272.24125209 -363.38638176 216.53021212 -364.49316406 159.60009766 C-363.23537831 98.41251998 -339.27211203 43.1521987 -295.37988281 0.55322266 C-224.95232272 -66.43102217 -112.19065002 -76.29679139 0 0 Z M-190.24316406 -30.39990234 C-191.14228516 -30.1855957 -192.04140625 -29.97128906 -192.96777344 -29.75048828 C-235.5454428 -19.28131904 -274.62095961 5.62495321 -301.24316406 40.60009766 C-301.68595703 41.17228027 -302.12875 41.74446289 -302.58496094 42.33398438 C-328.2640887 75.80667458 -341.73433934 116.90729915 -341.61816406 158.97509766 C-341.6172879 159.75767944 -341.61641174 160.54026123 -341.61550903 161.34655762 C-341.50861912 190.49310567 -335.21054684 218.43528516 -322.24316406 244.60009766 C-321.9005957 245.30682617 -321.55802734 246.01355469 -321.20507812 246.74169922 C-303.17177129 283.69905404 -272.58394101 313.69668449 -236.24316406 332.60009766 C-235.57446289 332.94814453 -234.90576172 333.29619141 -234.21679688 333.65478516 C-217.24443451 342.34934152 -199.02515316 348.31268407 -180.24316406 351.60009766 C-179.25219727 351.77669922 -178.26123047 351.95330078 -177.24023438 352.13525391 C-167.4258176 353.72142227 -157.78306028 353.99955174 -147.86816406 353.97509766 C-147.03511749 353.97455383 -146.20207092 353.97401001 -145.34378052 353.97344971 C-131.3257282 353.93153421 -117.91260782 352.90430095 -104.24316406 349.60009766 C-102.89448242 349.2786377 -102.89448242 349.2786377 -101.51855469 348.95068359 C-58.89692023 338.47070404 -19.94323983 313.55292412 6.75683594 278.60009766 C7.2010791 278.02646484 7.64532227 277.45283203 8.10302734 276.86181641 C33.77933803 243.39012494 47.2480037 202.29017337 47.13183594 160.22509766 C47.13095978 159.44251587 47.13008362 158.65993408 47.12918091 157.8536377 C47.022291 128.70708964 40.72421872 100.76491015 27.75683594 74.60009766 C27.41426758 73.89336914 27.07169922 73.18664062 26.71875 72.45849609 C13.25599089 44.86799537 -7.47984339 20.68286073 -32.24316406 2.60009766 C-33.09056152 1.97820557 -33.09056152 1.97820557 -33.95507812 1.34375 C-66.98138857 -22.55911324 -106.07357251 -34.87558739 -146.68066406 -34.77490234 C-147.92648758 -34.77408661 -147.92648758 -34.77408661 -149.19747925 -34.77325439 C-163.19640871 -34.7312957 -176.59249144 -33.69956824 -190.24316406 -30.39990234 Z " fill="#ffffff" transform="translate(403.2431640625,96.39990234375)"/>
<path d="M0 0 C1.23445358 -0.00637985 2.46890717 -0.0127597 3.74076843 -0.01933289 C5.0782365 -0.02086097 6.41570509 -0.02197525 7.75317383 -0.02270508 C9.13129206 -0.02592009 10.50940995 -0.02928435 11.88752747 -0.03279114 C14.76812533 -0.03876424 17.64869326 -0.04063269 20.52929688 -0.04003906 C24.22498135 -0.03993704 27.92047542 -0.05363815 31.61611462 -0.07081127 C34.45820505 -0.08190774 37.3002489 -0.08395907 40.14235878 -0.08342934 C41.50555394 -0.08461113 42.86875023 -0.08904404 44.23192406 -0.0967617 C46.13245558 -0.10652217 48.03304316 -0.10242956 49.93359375 -0.09765625 C51.01549484 -0.09908127 52.09739594 -0.10050629 53.21208191 -0.10197449 C55.77270508 0.14526367 55.77270508 0.14526367 57.77270508 2.14526367 C58.02667236 4.33970642 58.02667236 4.33970642 58.03149414 7.09814453 C58.03779846 8.1293895 58.04410278 9.16063446 58.05059814 10.22312927 C58.04452545 11.89968346 58.04452545 11.89968346 58.03833008 13.61010742 C58.04024353 14.75435684 58.04215698 15.89860626 58.04412842 17.07752991 C58.0454914 19.50107035 58.04178711 21.92461806 58.03344727 24.34814453 C58.02275937 28.06388731 58.03333397 31.77914549 58.04614258 35.49487305 C58.04482081 37.84578558 58.04225806 40.1966978 58.03833008 42.54760742 C58.04237854 43.66328598 58.046427 44.77896454 58.05059814 45.92845154 C58.04114166 47.48004723 58.04114166 47.48004723 58.03149414 49.06298828 C58.02990295 49.97406845 58.02831177 50.88514862 58.02667236 51.82383728 C57.77270508 54.14526367 57.77270508 54.14526367 55.77270508 57.14526367 C53.55807495 57.50602722 53.55807495 57.50602722 50.7722168 57.48583984 C49.21082474 57.48549995 49.21082474 57.48549995 47.6178894 57.4851532 C46.49077545 57.46966934 45.3636615 57.45418549 44.20239258 57.43823242 C42.47534592 57.43186516 42.47534592 57.43186516 40.71340942 57.42536926 C37.02460653 57.40853419 33.33634372 57.37087241 29.64770508 57.33276367 C27.1516192 57.31772311 24.65552479 57.30403362 22.15942383 57.29174805 C16.03014053 57.2611628 9.90202955 57.20244811 3.77270508 57.14526367 C3.77270508 65.72526367 3.77270508 74.30526367 3.77270508 83.14526367 C7.50325195 83.11045898 11.23379883 83.0756543 15.07739258 83.03979492 C18.67813348 83.01641953 22.27886604 82.99819141 25.87963867 82.98046875 C28.3881405 82.96535338 30.89661579 82.9448607 33.4050293 82.91894531 C37.0042169 82.88268325 40.60305608 82.86556493 44.20239258 82.85229492 C45.32950653 82.83681107 46.45662048 82.82132721 47.6178894 82.80537415 C48.65881744 82.80514755 49.69974548 82.80492096 50.7722168 82.8046875 C52.15121658 82.79469475 52.15121658 82.79469475 53.55807495 82.78450012 C54.28890289 82.90355209 55.01973083 83.02260406 55.77270508 83.14526367 C57.96273417 86.43030731 58.0248162 87.40067689 58.03149414 91.21166992 C58.03779846 92.24283936 58.04410278 93.27400879 58.05059814 94.33642578 C58.04452545 96.00523804 58.04452545 96.00523804 58.03833008 97.70776367 C58.04024353 98.85059814 58.04215698 99.99343262 58.04412842 101.17089844 C58.04549012 103.58846252 58.04179472 106.00603392 58.03344727 108.42358398 C58.02274782 112.13045631 58.03334334 115.83684397 58.04614258 119.54370117 C58.04482098 121.89005641 58.04225858 124.23641135 58.03833008 126.58276367 C58.04237854 127.69530518 58.046427 128.80784668 58.05059814 129.95410156 C58.04114166 131.50085571 58.04114166 131.50085571 58.03149414 133.07885742 C58.02990295 133.98692139 58.02831177 134.89498535 58.02667236 135.83056641 C57.77270508 138.14526367 57.77270508 138.14526367 55.77270508 141.14526367 C53.70993042 141.50602722 53.70993042 141.50602722 51.1394043 141.48583984 C50.17855927 141.48561325 49.21771423 141.48538666 48.22775269 141.4851532 C47.18813385 141.46966934 46.14851501 141.45418549 45.07739258 141.43823242 C44.01481232 141.43398758 42.95223206 141.42974274 41.85745239 141.42536926 C38.45394862 141.40853756 35.05103075 141.3708767 31.64770508 141.33276367 C29.34432819 141.31772266 27.04094206 141.30403325 24.73754883 141.29174805 C19.08240003 141.25861941 13.4275944 141.20837564 7.77270508 141.14526367 C7.77547046 142.00059472 7.77547046 142.00059472 7.7782917 142.87320518 C7.82242237 156.73527179 7.85541047 170.59732612 7.87632942 184.45944786 C7.88665071 191.16301366 7.90072725 197.86653262 7.92358398 204.57006836 C7.94525095 211.03448613 7.9572607 217.49885516 7.96245956 223.96330643 C7.9661664 226.43456414 7.97340447 228.90581906 7.98416519 231.37705612 C7.9985984 234.82768351 8.00068645 238.27810725 7.99975586 241.72875977 C8.00694641 242.75950119 8.01413696 243.79024261 8.02154541 244.85221863 C8.01879608 245.78893906 8.01604675 246.72565948 8.01321411 247.69076538 C8.0150577 248.50747396 8.01690128 249.32418255 8.01880074 250.16563988 C7.77270508 252.14526367 7.77270508 252.14526367 5.77270508 254.14526367 C3.5715332 254.39923096 3.5715332 254.39923096 0.80395508 254.40405273 C-0.23051758 254.41035706 -1.26499023 254.41666138 -2.33081055 254.42315674 C-4.01207031 254.41708405 -4.01207031 254.41708405 -5.72729492 254.41088867 C-7.44722656 254.41375885 -7.44722656 254.41375885 -9.2019043 254.41668701 C-11.6296409 254.41804989 -14.05738476 254.41434634 -16.48510742 254.40600586 C-20.21183565 254.39530805 -23.93808178 254.40589798 -27.66479492 254.41870117 C-30.01896266 254.4173796 -32.37313009 254.41481724 -34.72729492 254.41088867 C-35.84813477 254.41493713 -36.96897461 254.4189856 -38.1237793 254.42315674 C-39.15825195 254.41685242 -40.19272461 254.4105481 -41.25854492 254.40405273 C-42.1718457 254.40246155 -43.08514648 254.40087036 -44.02612305 254.39923096 C-46.22729492 254.14526367 -46.22729492 254.14526367 -48.22729492 252.14526367 C-48.47339058 250.16563988 -48.47339058 250.16563988 -48.46780396 247.69076538 C-48.47055328 246.75404495 -48.47330261 245.81732452 -48.47613525 244.85221863 C-48.4689447 243.8214772 -48.46175415 242.79073578 -48.4543457 241.72875977 C-48.45463776 240.64582138 -48.45492981 239.562883 -48.45523071 238.4471283 C-48.4538332 234.85423879 -48.4382521 231.26155461 -48.42260742 227.66870117 C-48.41887879 225.18291334 -48.41603111 222.69712405 -48.41403198 220.21133423 C-48.40716618 214.32877281 -48.39139039 208.44628766 -48.371333 202.56375754 C-48.34680479 195.21073109 -48.33604747 187.85769554 -48.32495117 180.50463867 C-48.30348023 167.3848093 -48.2697126 154.26504117 -48.22729492 141.14526367 C-49.75652588 141.16882935 -49.75652588 141.16882935 -51.31665039 141.19287109 C-55.09228644 141.24709394 -58.86788796 141.28158551 -62.64379883 141.31005859 C-64.27927433 141.32516279 -65.91470922 141.34564756 -67.55004883 141.37158203 C-69.89829516 141.40789512 -72.24600697 141.424973 -74.59448242 141.43823242 C-75.69456131 141.46145821 -75.69456131 141.46145821 -76.81686401 141.4851532 C-78.87915039 141.48583984 -78.87915039 141.48583984 -82.22729492 141.14526367 C-84.41732401 137.86022003 -84.47940604 136.88985046 -84.48608398 133.07885742 C-84.49238831 132.04768799 -84.49869263 131.01651855 -84.50518799 129.95410156 C-84.50113953 128.84156006 -84.49709106 127.72901855 -84.49291992 126.58276367 C-84.49483337 125.4399292 -84.49674683 124.29709473 -84.49871826 123.11962891 C-84.50007997 120.70206482 -84.49638456 118.28449342 -84.48803711 115.86694336 C-84.47733766 112.16007103 -84.48793318 108.45368337 -84.50073242 104.74682617 C-84.49941082 102.40047093 -84.49684843 100.05411599 -84.49291992 97.70776367 C-84.49696838 96.59522217 -84.50101685 95.48268066 -84.50518799 94.33642578 C-84.49888367 93.30525635 -84.49257935 92.27408691 -84.48608398 91.21166992 C-84.4844928 90.30360596 -84.48290161 89.39554199 -84.48126221 88.45996094 C-84.22729492 86.14526367 -84.22729492 86.14526367 -82.22729492 83.14526367 C-79.60267248 82.8782848 -77.2166356 82.79693383 -74.59448242 82.85229492 C-73.84264679 82.85653976 -73.09081116 82.86078461 -72.31619263 82.86515808 C-69.91119807 82.88197197 -67.50703683 82.91962743 -65.10229492 82.95776367 C-63.47340076 82.97280708 -61.84449349 82.98649609 -60.21557617 82.9987793 C-56.21916058 83.03188413 -52.2233691 83.08368358 -48.22729492 83.14526367 C-48.24300537 82.0064978 -48.24300537 82.0064978 -48.2590332 80.84472656 C-48.88066524 28.84402604 -48.88066524 28.84402604 -33.22729492 12.14526367 C-24.09941707 3.91016308 -12.18931492 0.04285136 0 0 Z " fill="#ffffff" transform="translate(269.227294921875,128.854736328125)"/>
</svg>