<svg version="1.0" xmlns="http://www.w3.org/2000/svg" width="860.000000ptpx" height="559.000000ptpx" viewBox="0 0 860.000000 559.000000" preserveAspectRatio="xMidYMid meet" transform="rotate(0) scale(1, 1)">

<g transform="translate(0.000000,559.000000) scale(0.100000,-0.100000)" fill="#737373" stroke="none">
<path d="M5820 5186 c-3 -3 -53 -10 -110 -16 -222 -22 -270 -29 -332 -45 -253&#10;-65 -338 -95 -548 -198 -109 -53 -249 -134 -287 -167 -7 -5 -14 -10 -17 -10&#10;-7 0 -168 -123 -201 -154 -69 -65 -67 -65 -147 4 -130 110 -407 281 -533 328&#10;-16 6 -57 23 -90 36 -54 24 -130 47 -285 90 -199 54 -459 81 -715 73 -210 -7&#10;-336 -25 -481 -68 -421 -125 -723 -304 -1048 -619 -368 -358 -613 -828 -695&#10;-1336 -30 -184 -30 -478 -1 -660 70 -426 218 -780 463 -1103 102 -135 332&#10;-365 462 -462 163 -122 437 -272 616 -338 129 -47 336 -97 504 -122 455 -68&#10;933 10 1358 223 168 83 355 201 447 280 9 8 33 27 53 42 37 28 38 28 60 10 31&#10;-26 58 -50 85 -74 12 -11 25 -20 28 -20 4 0 80 -56 94 -70 6 -6 31 -22 80 -50&#10;19 -11 49 -29 65 -40 17 -11 44 -27 60 -36 17 -9 32 -20 35 -24 9 -13 285&#10;-140 304 -140 6 0 23 -7 38 -14 16 -8 72 -27 125 -41 54 -14 121 -33 148 -40&#10;28 -8 93 -19 145 -25 52 -6 118 -15 145 -21 98 -20 228 -21 380 -5 268 29 301&#10;34 401 61 54 15 122 32 149 40 28 7 66 20 85 28 19 9 65 27 101 41 78 29 259&#10;116 309 148 40 25 73 44 111 65 15 7 32 20 39 28 7 8 16 15 21 15 5 0 17 6 26&#10;14 84 68 133 106 138 106 13 0 312 308 354 365 25 33 63 85 86 115 23 30 50&#10;69 59 85 9 17 22 39 29 49 45 72 78 131 112 201 42 88 95 216 95 228 0 4 9 27&#10;20 49 11 23 20 48 20 57 0 8 9 44 20 80 29 98 48 180 54 231 3 25 13 99 23&#10;165 21 140 22 249 5 395 -7 58 -17 141 -22 185 -10 87 -32 186 -61 279 -11 33&#10;-19 69 -19 81 0 12 -4 25 -8 31 -5 5 -23 47 -41 94 -18 47 -50 122 -72 167&#10;-21 46 -39 85 -39 87 0 4 -53 97 -85 147 -5 9 -19 32 -29 50 -10 19 -38 59&#10;-61 89 -23 30 -61 82 -86 115 -42 57 -341 365 -354 365 -5 0 -54 38 -138 106&#10;-9 8 -21 14 -26 14 -5 0 -14 7 -21 15 -7 8 -24 21 -39 28 -38 21 -71 40 -111&#10;65 -50 32 -231 119 -309 148 -36 14 -86 34 -111 44 -25 10 -85 28 -135 40 -49&#10;12 -115 28 -145 35 -30 8 -95 19 -145 25 -49 6 -117 15 -150 20 -77 13 -248&#10;24 -255 16z m-1337 -1133 c-111 -2 -295 -2 -410 0 -114 1 -23 2 202 2 226 0&#10;319 -1 208 -2z m1182 -808 c49 -8 105 -22 123 -31 38 -18 36 -3 17 -144 -10&#10;-70 -25 -102 -44 -94 -75 32 -135 46 -211 47 -74 2 -92 -1 -140 -25 -109 -54&#10;-191 -207 -193 -358 -1 -65 3 -82 27 -123 37 -62 89 -104 154 -123 44 -13 64&#10;-14 130 -3 42 6 92 18 111 25 67 27 76 11 41 -71 -11 -27 -20 -69 -20 -99 0&#10;-49 -2 -52 -32 -65 -18 -7 -83 -15 -145 -18 -126 -6 -222 11 -306 55 -57 29&#10;-139 112 -149 150 -4 15 -17 57 -30 95 l-23 67 -137 0 c-121 0 -137 -2 -142&#10;-17 -16 -55 -34 -155 -35 -203 -1 -30 -6 -59 -12 -65 -5 -5 -9 -22 -9 -37 l0&#10;-28 -125 0 c-136 0 -133 -2 -115 60 21 70 140 741 140 789 0 7 37 11 116 11&#10;94 0 115 -3 111 -14 -11 -27 -19 -106 -12 -106 5 0 24 18 43 40 18 22 47 47&#10;63 56 31 16 159 32 159 20 0 -4 -8 -21 -17 -39 -9 -18 -29 -68 -44 -112 l-27&#10;-80 -53 -3 c-86 -4 -147 -68 -154 -161 -1 -20 -6 -51 -10 -68 l-7 -33 130 0&#10;130 0 7 98 c4 53 13 127 21 165 13 65 80 228 96 235 5 2 8 10 8 17 0 20 109&#10;116 167 148 98 53 241 68 398 42z m2357 -25 c-1 -14 -11 -59 -21 -100 -11 -41&#10;-29 -131 -41 -200 -11 -69 -29 -170 -40 -225 -35 -189 -60 -340 -71 -432 l-12&#10;-93 -128 0 -129 0 0 35 c0 29 -3 33 -17 28 -10 -4 -24 -12 -31 -19 -12 -12&#10;-90 -38 -152 -51 -36 -7 -142 21 -182 49 -14 10 -30 18 -35 18 -13 0 -70 81&#10;-89 126 -21 51 -29 201 -15 302 21 157 110 291 236 354 47 24 77 32 141 36&#10;111 6 173 -10 226 -59 23 -21 43 -37 44 -36 4 4 31 140 44 225 l12 73 131 -3&#10;132 -3 -3 -25z m-6908 -72 c3 -50 6 -203 6 -340 0 -220 6 -279 23 -235 18 46&#10;258 617 268 640 l12 27 195 0 c170 0 193 -2 188 -15 -16 -43 -39 -153 -76&#10;-370 -23 -132 -45 -260 -50 -285 -7 -42 -45 -284 -56 -357 l-5 -33 -115 0&#10;c-105 0 -115 2 -110 18 20 68 29 121 85 472 41 256 51 320 51 337 -1 19 -76&#10;-155 -250 -574 l-104 -253 -103 0 -102 0 -6 33 c-3 17 -12 140 -20 272 -8 132&#10;-19 299 -25 370 -5 72 -10 141 -10 155 -1 14 -3 21 -6 15 -10 -27 -144 -747&#10;-144 -778 0 -66 -1 -67 -116 -67 -57 0 -104 2 -104 5 0 3 9 43 20 88 27 112&#10;170 878 170 910 0 58 -3 57 195 57 l182 0 7 -92z m2466 47 c0 -24 -9 -67 -20&#10;-95 -11 -28 -20 -53 -20 -55 0 -3 31 -5 70 -5 l70 0 -6 -27 c-2 -16 -10 -59&#10;-17 -98 l-12 -70 -67 -3 c-47 -2 -68 -7 -72 -18 -3 -8 -10 -54 -17 -102 -6&#10;-48 -19 -124 -30 -169 -36 -154 -25 -179 75 -177 77 2 75 7 43 -111 -26 -93&#10;-25 -93 -162 -93 -114 -1 -170 18 -199 68 -35 59 -27 145 53 550 39 200 71&#10;381 71 401 0 19 3 39 7 42 3 4 57 7 120 7 l113 0 0 -45z m2747 -149 c57 -15&#10;118 -49 146 -81 29 -32 67 -117 67 -150 0 -16 -8 -75 -19 -130 -46 -236 -62&#10;-335 -68 -417 l-6 -88 -113 0 -113 0 -3 33 -3 32 -21 -21 c-39 -39 -132 -69&#10;-219 -69 -67 0 -88 4 -131 27 -86 45 -131 135 -120 240 13 129 90 226 213 269&#10;55 19 95 25 208 29 156 6 161 8 130 73 -27 58 -118 71 -305 42 -52 -8 -98 -15&#10;-102 -15 -14 0 -8 61 13 131 24 80 20 77 169 94 144 17 216 17 277 1z m-3931&#10;-28 c29 -15 66 -44 83 -65 58 -70 58 -82 11 -354 -23 -134 -44 -283 -47 -331&#10;l-6 -88 -110 0 -110 0 5 45 c3 25 3 45 1 45 -3 0 -23 -14 -45 -32 -77 -60&#10;-206 -84 -302 -56 -56 17 -121 84 -136 140 -17 61 -8 167 19 220 29 56 86 114&#10;135 140 60 31 208 58 319 58 91 0 97 1 97 20 0 36 -28 77 -64 94 -44 21 -213&#10;21 -310 1 -38 -8 -71 -14 -72 -12 -2 1 3 29 11 62 8 33 16 72 19 87 5 23 13&#10;28 59 37 28 6 61 13 72 15 11 3 88 4 170 3 142 -2 153 -4 201 -29z m801 18 c2&#10;-1 -7 -42 -20 -90 l-22 -87 -125 7 c-119 6 -126 5 -152 -16 -60 -47 -26 -102&#10;97 -159 146 -67 180 -116 173 -250 -10 -204 -101 -264 -398 -265 -80 -1 -167&#10;3 -193 7 -44 8 -48 11 -43 30 3 12 9 55 13 95 5 62 9 72 22 66 26 -10 151 -23&#10;234 -24 74 0 80 2 108 29 16 16 29 40 29 53 0 31 -33 66 -79 85 -76 31 -157&#10;76 -184 101 -46 43 -60 79 -59 155 0 121 63 212 177 257 46 19 66 20 234 15&#10;102 -3 186 -7 188 -9z m1040 -16 c62 -26 134 -100 154 -156 18 -49 18 -223 1&#10;-281 l-13 -43 -262 -2 -262 -3 1 -36 c1 -49 34 -92 92 -121 70 -34 207 -32&#10;316 5 43 15 81 26 83 23 5 -4 -7 -90 -23 -168 -8 -38 -73 -58 -210 -65 -219&#10;-11 -358 41 -427 160 -98 169 -73 390 64 574 42 56 94 92 181 124 74 27 230&#10;22 305 -11z m2660 -25 l-5 -54 26 25 c50 47 104 72 175 79 79 9 80 6 39 -75&#10;-16 -31 -34 -84 -42 -118 l-13 -62 -59 0 c-55 0 -61 -2 -97 -39 -44 -45 -52&#10;-64 -80 -196 -50 -236 -61 -297 -61 -340 l0 -45 -134 0 c-74 0 -137 3 -139 8&#10;-3 4 4 36 13 72 19 67 44 189 80 395 12 66 30 163 41 215 10 52 19 116 19 143&#10;l0 47 121 0 122 0 -6 -55z m1240 -662 c45 -54 42 -105 -7 -154 -23 -23 -37&#10;-29 -72 -29 -100 0 -149 100 -87 178 27 36 45 42 99 38 34 -3 50 -11 67 -33z&#10;m-4513 -358 c6 -22 5 -27 -4 -19 -6 6 -13 27 -16 45 -5 40 9 21 20 -26z m459&#10;-783 c29 -25 19 -34 -13 -10 -16 12 -30 26 -30 30 0 10 16 2 43 -20z"/>
<path d="M7464 2833 c-21 -3 -47 -19 -74 -47 -116 -117 -121 -346 -9 -390 49&#10;-20 77 -20 120 -1 71 31 101 77 130 198 26 105 19 156 -24 202 -33 35 -78 47&#10;-143 38z"/>
<path d="M6064 2537 c-61 -24 -86 -50 -91 -98 -4 -35 -1 -48 15 -62 24 -22 79&#10;-32 128 -23 40 8 104 66 104 95 0 10 4 21 9 27 5 5 12 24 16 42 l7 32 -79 -1&#10;c-43 0 -92 -6 -109 -12z"/>
<path d="M2080 2564 c-70 -19 -110 -57 -117 -112 -5 -36 -2 -45 26 -73 31 -30&#10;35 -31 92 -26 98 9 168 82 172 180 l2 42 -60 2 c-33 1 -85 -5 -115 -13z"/>
<path d="M3970 2851 c-44 -23 -82 -77 -78 -111 l3 -25 143 -3 142 -3 0 33 c0&#10;99 -116 160 -210 109z"/>
<path d="M7987 2303 c-10 -10 -8 -76 3 -93 7 -11 10 2 10 43 0 58 -1 62 -13&#10;50z"/>
<path d="M8030 2295 c0 -9 9 -15 25 -15 28 0 34 15 9 24 -25 10 -34 7 -34 -9z"/>
<path d="M8111 2264 c-7 -17 -8 -31 -2 -37 13 -13 34 29 23 49 -7 12 -11 10&#10;-21 -12z"/>
<path d="M8030 2210 c0 -23 5 -30 19 -30 27 0 34 15 19 40 -19 30 -38 25 -38&#10;-10z"/>
</g>
</svg>