<svg version="1.1" xmlns="http://www.w3.org/2000/svg" width="2560px" height="768px" transform="rotate(0) scale(1, 1)">
<path d="M0 0 C259.82158597 0 259.82158597 0 283.90234375 23.71875 C298.13486626 38.41151731 306.81564062 57.62842773 312.98925781 76.86767578 C313.9024416 79.69766321 314.83764107 82.51946355 315.78160095 85.33930969 C345.07913601 172.95047973 369.08784455 262.48842434 394.37905979 351.31003189 C395.58377844 355.54067022 396.79099888 359.77058408 398 364 C401.96 364.33 405.92 364.66 410 365 C410.12605621 363.83020599 410.25211243 362.66041199 410.38198853 361.45516968 C410.88832136 357.42805588 411.78983391 353.6299199 412.88818359 349.71728516 C413.07966004 349.02960178 413.27113649 348.34191841 413.46841526 347.63339615 C414.10594748 345.35027869 414.7519753 343.06966619 415.3984375 340.7890625 C415.86080946 339.14325084 416.32284152 337.49734366 416.78456116 335.85134888 C418.04166623 331.37848847 419.30763799 326.90818559 420.57648849 322.43864441 C421.37988531 319.60778606 422.18145122 316.77641428 422.98269653 313.94494629 C440.62555091 251.64074245 459.49966695 189.7002023 478.69311523 127.85839844 C479.42499145 125.49947203 480.15683959 123.14053691 480.88866043 120.78159332 C481.36060053 119.26083824 481.83279285 117.74016141 482.30524826 116.21956635 C484.76722084 108.29355253 487.20367072 100.36146666 489.56323242 92.40429688 C489.87007336 91.37145002 489.87007336 91.37145002 490.1831131 90.31773758 C491.13678742 87.10494008 492.08454306 83.89072146 493.02249146 80.67327881 C495.87048599 71.03051677 499.38980231 61.93311985 504 53 C504.32323242 52.36723145 504.64646484 51.73446289 504.97949219 51.08251953 C509.38278558 42.59796466 514.61623037 35.12079455 521 28 C521.61230469 27.29359375 522.22460938 26.5871875 522.85546875 25.859375 C537.33798674 10.17255381 558.41760444 2.94034222 579 0 C654.24 0 729.48 0 807 0 C807 202.95 807 405.9 807 615 C739.35 615 671.7 615 602 615 C602 494.55 602 374.1 602 250 C598.04 250.33 594.08 250.66 590 251 C568.6747455 322.27743748 568.6747455 322.27743748 547.375 393.5625 C547.18118492 394.21168018 546.98736984 394.86086037 546.78768158 395.52971268 C542.11949886 411.16664034 537.46079155 426.80636647 532.8125 442.44921875 C532.5912722 443.19371277 532.3700444 443.93820679 532.14211273 444.70526123 C530.10119994 451.57371552 528.06054387 458.44224608 526.0201416 465.31085205 C517.25934387 494.80086111 508.45499618 524.27780051 499.63816261 553.75110054 C498.57961225 557.2897588 497.52125038 560.82847341 496.46292496 564.36719894 C495.9547681 566.06614366 495.44651699 567.76506019 494.93816757 569.4639473 C492.44688414 577.79006032 489.9604919 586.11747625 487.50292969 594.45361328 C487.31206976 595.1004926 487.12120983 595.74737192 486.92456627 596.41385365 C486.05193658 599.37218823 485.18140081 602.3311081 484.31448364 605.29112244 C484.01976166 606.29212479 483.72503967 607.29312714 483.42138672 608.32446289 C483.16863983 609.18697159 482.91589294 610.04948029 482.65548706 610.93812561 C482 613 482 613 481 615 C429.85 615 378.7 615 326 615 C309.91397479 562.14591718 309.91397479 562.14591718 302.85922241 538.31524658 C300.76564073 531.24575937 298.66651013 524.17791804 296.56791878 517.10991669 C296.08029853 515.46756339 295.59273309 513.82519383 295.1052227 512.18280792 C289.89138278 494.61805284 284.64814138 477.0621286 279.39984131 459.50764465 C273.19999258 438.77034323 267.00539959 418.03152135 260.8359375 397.28515625 C260.57801422 396.41791176 260.32009094 395.55066727 260.05435181 394.65714264 C257.70557644 386.75955596 255.35699122 378.86191291 253.01037598 370.96368408 C247.35740843 351.93765525 241.68392078 332.91818476 235.95040321 313.91625404 C235.0946055 311.07951334 234.23947199 308.24257329 233.38456726 305.40556335 C232.825967 303.55202983 232.26735806 301.69849893 231.70874023 299.8449707 C231.43569407 298.93894324 231.16264791 298.03291578 230.88132763 297.09943295 C229.27092015 291.75782831 227.65534249 286.41782058 226.03596497 281.07892895 C225.04276608 277.80066409 224.05399603 274.52107555 223.06637955 271.24112511 C222.60757538 269.72101237 222.14681837 268.20148751 221.68398666 266.68259621 C221.05308383 264.61149423 220.42893694 262.53847193 219.80639648 260.46484375 C219.27996803 258.72642212 219.27996803 258.72642212 218.74290466 256.95288086 C218 254 218 254 218 250 C211.73 250 205.46 250 199 250 C199 370.45 199 490.9 199 615 C133.33 615 67.66 615 0 615 C0 412.05 0 209.1 0 0 Z " fill="#737373" transform="translate(198,83)"/>
<path d="M0 0 C67.65 0 135.3 0 205 0 C205 120.45 205 240.9 205 365 C211.27 365 217.54 365 224 365 C224.33 363.35 224.66 361.7 225 360 C225.50987892 358.65022848 226.06679288 357.31736474 226.66723633 356.00537109 C227.00931122 355.25092209 227.35138611 354.49647308 227.7038269 353.71916199 C228.07613434 352.91207291 228.44844177 352.10498383 228.83203125 351.2734375 C229.21948517 350.42223831 229.60693909 349.57103912 230.00613403 348.69404602 C230.83756995 346.86891224 231.67136712 345.04485263 232.5072937 343.22177124 C234.2700718 339.37699513 236.02124386 335.52697105 237.77314758 331.67723083 C238.64729754 329.75668166 239.52204189 327.83640291 240.39738464 325.91639709 C243.61543232 318.85663415 246.79674345 311.78204379 249.9375 304.6875 C250.38826904 303.67051025 250.83903809 302.65352051 251.3034668 301.60571289 C252.28946077 299.38022198 253.2750334 297.15454437 254.26025391 294.92871094 C258.04177599 286.38699183 261.83321104 277.84966517 265.625 269.3125 C266.05348236 268.347677 266.48196472 267.382854 266.9234314 266.38879395 C273.36427201 251.88954243 279.85075396 237.41147097 286.37237549 222.94839478 C291.94781219 210.58265858 297.47820039 198.19778857 302.9765625 185.79760742 C308.36012014 173.65903083 313.79401223 161.54368196 319.25 149.4375 C324.21184343 138.42734076 329.16595284 127.41439514 334.0625 116.375 C334.99608301 114.27213065 335.92967702 112.16926618 336.86328125 110.06640625 C338.92244857 105.42809397 338.92244857 105.42809397 340.98040771 100.78924561 C343.1932348 95.79972439 345.41015998 90.81205166 347.63131714 85.82623291 C348.36192042 84.18453303 349.09124599 82.54226377 349.81912231 80.89935303 C353.48583124 72.62480287 357.21738246 64.39055885 361.22265625 56.2734375 C361.68832001 55.31858208 361.68832001 55.31858208 362.16339111 54.34443665 C369.87992447 38.93328172 383.44393791 25.05550397 398 16 C398.73992187 15.50371094 399.47984375 15.00742188 400.2421875 14.49609375 C405.37919413 11.18384874 410.75453783 8.67323136 416.375 6.3125 C417.0460376 6.02697266 417.7170752 5.74144531 418.40844727 5.44726562 C485.0073391 -21.61373289 562.11321377 0 634 0 C634 202.95 634 405.9 634 615 C566.02 615 498.04 615 428 615 C428 494.55 428 374.1 428 250 C424.04 250 420.08 250 416 250 C415.65839844 251.13953125 415.31679687 252.2790625 414.96484375 253.453125 C412.68103264 260.28465295 409.6231723 266.790105 406.65335083 273.34295654 C405.13961775 276.68312113 403.63548291 280.02758166 402.13072205 283.37179565 C401.3278579 285.1559633 400.52451472 286.93991545 399.72071838 288.72366333 C395.55157842 297.98012549 391.43475422 307.25960409 387.31967163 316.54019165 C380.13802774 332.73414924 372.90819308 348.9055366 365.62625122 365.05462646 C360.0512744 377.41935632 354.52135112 389.80322289 349.0234375 402.20239258 C343.63987936 414.3409703 338.20582297 426.45624303 332.75 438.5625 C327.85391147 449.42820099 322.96050775 460.29466455 318.125 471.1875 C317.67350586 472.20457031 317.22201172 473.22164062 316.75683594 474.26953125 C314.41630547 479.54566927 312.07837425 484.82295579 309.74121094 490.10058594 C292.05123024 530.04074256 292.05123024 530.04074256 285.1875 545.0625 C284.75115234 546.02808838 284.31480469 546.99367676 283.86523438 547.98852539 C270.78020371 576.38760647 248.94321659 597.62762411 219.52832031 608.54223633 C218.46242676 608.92351685 218.46242676 608.92351685 217.375 609.3125 C216.73143555 609.54283936 216.08787109 609.77317871 215.42480469 610.01049805 C147.39483063 633.0564552 71.82752614 615 0 615 C0 412.05 0 209.1 0 0 Z " fill="#737373" transform="translate(1088,83)"/>
<path d="M0 0 C57.66615095 -0.0687584 115.33229813 -0.12158165 172.99848201 -0.15319599 C179.81596399 -0.15693762 186.63344588 -0.16082733 193.45092773 -0.16479492 C194.12930703 -0.1651872 194.80768632 -0.16557948 195.50662256 -0.16598364 C217.44871565 -0.17874108 239.39078538 -0.201255 261.33286435 -0.22889166 C284.54482766 -0.2580743 307.75677711 -0.27600565 330.96876007 -0.28226548 C344.85707242 -0.28636925 358.74531768 -0.29930185 372.63360936 -0.3237494 C382.17437705 -0.33968225 391.71511036 -0.34438338 401.25589036 -0.34050413 C406.74953127 -0.33859427 412.24305544 -0.34139423 417.73667526 -0.35761642 C481.05342252 -0.53508509 541.6503157 10.57101012 589.79296875 54.98046875 C591.71482152 56.73904907 593.67647489 58.40819775 595.6875 60.0625 C599.55018002 63.35925248 602.73972715 67.11935135 606 71 C606.73992188 71.84046875 607.47984375 72.6809375 608.2421875 73.546875 C635.47238612 105.03994817 651.81097129 144.88765874 657 186 C657.0942627 186.65709961 657.18852539 187.31419922 657.28564453 187.99121094 C658.27370567 195.5033037 658.24078167 203.06114228 658.25 210.625 C658.25167175 211.34877838 658.25334351 212.07255676 658.25506592 212.81826782 C658.25711366 227.67562912 657.80321442 242.82636333 653 257 C600.99849101 257.04583097 548.99698407 257.08104636 496.99545883 257.10213066 C490.84877916 257.10463191 484.70209953 257.10722057 478.55541992 257.10986328 C477.33178577 257.1103879 476.10815162 257.11091252 474.84743764 257.11145304 C455.06434757 257.12014302 435.28126918 257.13590522 415.49818603 257.15430559 C395.1815924 257.17304384 374.86500488 257.18412501 354.54840297 257.18817699 C342.02359411 257.19091392 329.49881829 257.19954163 316.97401961 257.21583293 C308.37192436 257.22644831 299.76984605 257.22959037 291.16774473 257.22700275 C286.21334363 257.22572852 281.25900004 257.2276079 276.3046093 257.23841095 C229.00223795 257.33643772 229.00223795 257.33643772 209.6875 252.875 C208.74567871 252.66109619 207.80385742 252.44719238 206.83349609 252.22680664 C167.22659928 242.85035982 131.28949975 222.99951832 101 196 C100.24710693 195.33170166 100.24710693 195.33170166 99.47900391 194.64990234 C89.02670198 185.33102296 78.88679426 175.72970077 70.18359375 164.73046875 C68.75897314 162.94905585 67.29378927 161.19912964 65.78515625 159.48828125 C30.94944672 119.78368719 9.64083387 67.64622898 1 16 C0.80019531 14.83339844 0.60039063 13.66679688 0.39453125 12.46484375 C0.07633267 9.67036714 -0.04078155 7.08427995 -0.0246582 4.28344727 C-0.02109818 3.47939957 -0.01753815 2.67535187 -0.01387024 1.84693909 C-0.00929306 1.23744919 -0.00471588 0.62795929 0 0 Z " fill="#737373" transform="translate(1792,83)"/>
<path d="M0 0 C207.24 0 414.48 0 628 0 C626.87255108 7.89214241 626.87255108 7.89214241 624.84765625 12.1875 C624.18515869 13.59563965 624.18515869 13.59563965 623.50927734 15.03222656 C623.03184082 16.0115918 622.5544043 16.99095703 622.0625 18 C621.56959473 19.01803711 621.07668945 20.03607422 620.56884766 21.08496094 C612.19612401 38.02331578 600.85074225 52.20401927 588 66 C587.31550781 66.73863281 586.63101563 67.47726562 585.92578125 68.23828125 C579.52399325 74.90040074 572.34957562 80.44040511 565 86 C564.07058594 86.71285156 563.14117188 87.42570312 562.18359375 88.16015625 C554.7992655 93.69565119 547.01072365 98.43966084 539 103 C538.00589111 103.56702637 538.00589111 103.56702637 536.99169922 104.14550781 C525.72860366 110.50016206 514.11740463 115.50908764 502 120 C501.27264648 120.27440918 500.54529297 120.54881836 499.79589844 120.83154297 C490.33526833 124.36127045 480.71362839 126.93180418 470.875 129.1875 C469.85849365 129.42549316 468.8419873 129.66348633 467.79467773 129.90869141 C448.09301175 134.2289799 428.35826876 135.44366412 408.24414062 135.34057617 C405.87609874 135.33972713 403.50805608 135.34021043 401.14001465 135.34190369 C394.79445922 135.34275426 388.44907859 135.32528278 382.10356331 135.30418181 C376.1188572 135.28718116 370.13414994 135.28429842 364.14942425 135.2812262 C352.31638069 135.27470324 340.48340011 135.25485668 328.65039062 135.22631836 C317.17383122 135.19866895 305.69728917 135.17752358 294.22070312 135.16479492 C293.50293434 135.16399093 292.78516555 135.16318694 292.04564619 135.16235858 C285.799497 135.15541757 279.55334733 135.14896034 273.30719757 135.14255047 C246.53807234 135.11445578 219.76911472 135.05465563 193 135 C193 196.38 193 257.76 193 321 C129.31 321 65.62 321 0 321 C0 215.07 0 109.14 0 0 Z " fill="#737373" transform="translate(1804,377)"/>
</svg>