<svg version="1.1" xmlns="http://www.w3.org/2000/svg" width="512px" height="512px" transform="rotate(0) scale(1, 1)">
<path d="M0 0 C4.35648976 3.78279563 7.61870086 8.22630177 8.21307373 14.10877991 C8.32720344 16.70496748 8.38125003 19.2960382 8.4140625 21.89453125 C8.43342865 22.84188644 8.4527948 23.78924164 8.4727478 24.76530457 C8.53236371 27.78094577 8.57885705 30.79662552 8.625 33.8125 C8.66319633 35.86134446 8.70224902 37.91017314 8.7421875 39.95898438 C8.83805053 44.97252762 8.92214807 49.98614603 9 55 C9.49701416 54.56139648 9.99402832 54.12279297 10.50610352 53.67089844 C45.70545914 22.72182643 86.18658623 2.85021999 133 -3 C134.00160156 -3.13148437 135.00320312 -3.26296875 136.03515625 -3.3984375 C192.72934398 -9.43494094 248.97236454 9.18822605 293.1015625 44.48046875 C306.60940591 55.50584545 318.8186471 67.82984867 329 82 C329.47501953 82.65774414 329.95003906 83.31548828 330.43945312 83.99316406 C352.18230118 114.45893337 365.35496594 148.91375194 370 186 C370.19722656 187.485 370.19722656 187.485 370.3984375 189 C376.3395833 244.23659876 358.88148965 300.89764351 324.3125 344.0625 C322.89320072 345.72405444 321.4551331 347.36973583 320 349 C319.57122559 349.48227051 319.14245117 349.96454102 318.70068359 350.46142578 C280.54727439 393.21652322 228.32018908 420.46686241 170.62402344 423.87548828 C111.15236755 426.6974593 55.25671486 406.89372994 11 367 C-6.86219898 350.69757221 -6.86219898 350.69757221 -8.3828125 340.41015625 C-8.71471846 333.05290744 -6.54457535 326.9105587 -1.5703125 321.35546875 C3.38417192 317.07883667 9.1375214 315.55387431 15.56640625 315.56640625 C24.12117843 317.09061125 28.36366314 320.79501731 34.125 327 C41.29740489 334.43186566 48.6262089 340.9702007 57 347 C57.836521 347.6189917 57.836521 347.6189917 58.68994141 348.25048828 C93.49444874 373.84291748 139.9672537 384.23178315 182.5625 377.875 C214.73638319 372.4889322 245.85028177 358.43266891 269.76953125 336.07421875 C271.81160319 334.17519913 273.91451582 332.40162345 276.0625 330.625 C281.02462227 326.29061609 284.96276521 321.18181166 289 316 C289.70898438 315.12988281 290.41796875 314.25976562 291.1484375 313.36328125 C318.2239865 279.10342592 330.12541317 233.44681947 325.12036133 190.23925781 C319.09223766 145.55178748 296.72998694 104.32403786 261 76.5 C232.90130725 55.18244583 198.39683665 42.09425705 163 41 C162.0203125 40.96003906 161.040625 40.92007813 160.03125 40.87890625 C116.80661676 39.95110478 73.14853076 56.4197764 41.80078125 86.25 C40.41439453 87.61125 40.41439453 87.61125 39 89 C38.48614746 89.50015625 37.97229492 90.0003125 37.44287109 90.515625 C31.54547281 95.75448778 31.54547281 95.75448778 27 102 C27.88425659 102.00364563 28.76851318 102.00729126 29.67956543 102.01104736 C38.03606576 102.04900341 46.39217883 102.10594235 54.74840546 102.18390274 C59.04387379 102.22331637 63.339139 102.25553462 67.63476562 102.27099609 C71.78473898 102.28620327 75.93415369 102.32071991 80.08387756 102.36830902 C81.66255319 102.38308117 83.24130859 102.39103862 84.8200531 102.39188385 C94.68769353 102.40247461 102.32541132 102.42929107 109.8125 109.75 C113.80921199 115.6879721 116.20785872 121.71167065 115 129 C112.86050013 136.47551443 108.84896895 141.1504023 102.20009995 145.05774879 C99.64071903 146.15387161 97.79651608 146.25672836 95.01715088 146.26742554 C93.51169708 146.28022049 93.51169708 146.28022049 91.97583008 146.29327393 C90.33312134 146.29191437 90.33312134 146.29191437 88.65722656 146.29052734 C87.49906433 146.29724457 86.3409021 146.30396179 85.14764404 146.31088257 C81.31192759 146.32990831 77.47638573 146.33378932 73.640625 146.3359375 C71.64876761 146.34073901 69.65691018 146.34554392 67.66505408 146.35085833 C61.39941116 146.36713815 55.1338257 146.37202782 48.86816406 146.37060547 C42.41746894 146.3694054 35.96710913 146.39048095 29.5164988 146.4220928 C23.96897703 146.44830434 18.42156441 146.45897067 12.87398124 146.45769465 C9.56488043 146.45718626 6.25614334 146.46465623 2.94709015 146.48405075 C-0.74877072 146.50368109 -4.44377328 146.49788279 -8.13964844 146.48583984 C-9.22669067 146.49707886 -10.31373291 146.50831787 -11.43371582 146.51989746 C-18.86837401 146.45844486 -24.55929014 145.40153669 -30.05859375 139.96484375 C-30.51363281 139.29582031 -30.96867187 138.62679687 -31.4375 137.9375 C-32.14712891 136.93009766 -32.14712891 136.93009766 -32.87109375 135.90234375 C-34.82927201 132.60257623 -35.1299249 129.88824303 -35.15390015 126.1374054 C-35.16250061 125.1351442 -35.17110107 124.132883 -35.17996216 123.10025024 C-35.18422211 122.00151581 -35.18848206 120.90278137 -35.19287109 119.77075195 C-35.20104858 118.61273575 -35.20922607 117.45471954 -35.21765137 116.26161194 C-35.24251032 112.42050699 -35.25902312 108.57943902 -35.2734375 104.73828125 C-35.27876118 103.4271102 -35.28408485 102.11593914 -35.28956985 100.76503563 C-35.31119551 95.25334396 -35.32992984 89.74165517 -35.34119225 84.22993183 C-35.35741624 76.34301038 -35.39055901 68.45658273 -35.44759309 60.5698474 C-35.4863655 55.01811551 -35.50583364 49.46651526 -35.51111281 43.91465157 C-35.51475708 40.60206458 -35.52919785 37.29012383 -35.55921555 33.97765541 C-35.59083825 30.27679613 -35.59090712 26.57717966 -35.58349609 22.8762207 C-35.59990143 21.78760742 -35.61630676 20.69899414 -35.63320923 19.57739258 C-35.57053876 11.92025249 -33.84599784 7.05055434 -28.55721092 1.48047352 C-20.03018429 -6.25223159 -9.46439562 -5.412748 0 0 Z " fill="#000000" transform="translate(99,46)"/>
</svg>