<svg version="1.1" xmlns="http://www.w3.org/2000/svg" viewBox="0 0 1000 324" preserveAspectRatio="xMidYMid meet" height="100px" width="100px" transform="rotate(0) scale(1, 1)">
<path d="M0 0 C1.569 0.007 3.138 0.013 4.707 0.017 C8.777 0.032 12.847 0.071 16.918 0.116 C21.095 0.157 25.272 0.175 29.449 0.195 C37.602 0.238 45.754 0.306 53.906 0.391 C57.614 14.408 60.517 28.575 63.438 42.773 C63.983 45.412 64.529 48.051 65.075 50.69 C66.244 56.343 67.412 61.997 68.578 67.651 C71.379 81.234 74.19 94.815 77.001 108.396 C77.652 111.538 78.302 114.68 78.952 117.822 C86.217 152.939 93.545 188.042 100.886 223.142 C101.644 226.764 102.402 230.387 103.159 234.009 C106.833 251.577 106.833 251.577 110.509 269.144 C110.971 271.354 111.433 273.564 111.894 275.775 C113.038 281.258 114.193 286.739 115.366 292.216 C115.6 293.316 115.834 294.416 116.075 295.55 C116.518 297.63 116.964 299.71 117.415 301.789 C117.612 302.716 117.808 303.643 118.01 304.598 C118.184 305.406 118.358 306.214 118.537 307.047 C118.906 309.391 118.906 309.391 118.906 314.391 C93.826 314.391 68.746 314.391 42.906 314.391 C41.421 307.378 39.936 300.366 38.406 293.141 C37.936 290.932 37.467 288.724 36.982 286.448 C36.613 284.695 36.244 282.941 35.875 281.188 C35.681 280.28 35.486 279.372 35.286 278.436 C35.103 277.564 34.921 276.691 34.732 275.792 C34.573 275.037 34.413 274.282 34.248 273.504 C33.906 271.391 33.906 271.391 33.906 267.391 C-17.079 267.886 -17.079 267.886 -69.094 268.391 C-74.374 283.241 -79.654 298.091 -85.094 313.391 C-86.882 315.179 -89.295 314.511 -91.676 314.515 C-92.476 314.511 -93.277 314.508 -94.102 314.504 C-94.941 314.504 -95.78 314.504 -96.644 314.505 C-99.431 314.504 -102.217 314.496 -105.004 314.488 C-106.931 314.486 -108.857 314.485 -110.784 314.484 C-115.866 314.48 -120.947 314.47 -126.029 314.459 C-131.21 314.449 -136.391 314.444 -141.572 314.439 C-151.746 314.429 -161.92 314.412 -172.094 314.391 C-170.054 307.96 -167.675 301.74 -165.059 295.523 C-164.668 294.588 -164.277 293.653 -163.875 292.689 C-162.597 289.63 -161.314 286.573 -160.031 283.516 C-159.129 281.36 -158.228 279.204 -157.327 277.048 C-155.025 271.545 -152.72 266.043 -150.414 260.542 C-148.408 255.754 -146.405 250.965 -144.402 246.176 C-141.075 238.221 -137.745 230.268 -134.413 222.315 C-131.818 216.121 -129.227 209.926 -126.637 203.73 C-118.927 185.29 -111.19 166.862 -103.406 148.453 C-97.748 135.071 -92.112 121.68 -86.531 108.266 C-86.235 107.552 -85.938 106.839 -85.632 106.104 C-84.42 103.191 -83.208 100.277 -81.996 97.363 C-76.103 83.198 -70.186 69.042 -64.243 54.897 C-62.266 50.193 -60.3 45.485 -58.346 40.771 C-57.522 38.786 -56.693 36.804 -55.862 34.822 C-54.89 32.506 -53.926 30.185 -52.972 27.861 C-48.561 17.425 -43.261 9.787 -33.094 4.391 C-22.029 0.609 -11.58 -0.166 0 0 Z M-4.094 88.391 C-4.504 89.532 -4.914 90.673 -5.337 91.848 C-14.888 118.396 -24.571 144.893 -34.403 171.338 C-34.812 172.439 -35.221 173.539 -35.642 174.673 C-36.398 176.706 -37.155 178.739 -37.912 180.772 C-40.707 188.29 -43.395 195.835 -46.094 203.391 C-24.314 203.391 -2.534 203.391 19.906 203.391 C19.165 196.355 19.165 196.355 18.002 189.463 C17.827 188.598 17.652 187.733 17.471 186.842 C17.282 185.927 17.092 185.012 16.897 184.069 C16.695 183.079 16.493 182.09 16.285 181.07 C15.623 177.826 14.954 174.583 14.285 171.34 C13.82 169.075 13.356 166.811 12.891 164.547 C11.92 159.815 10.945 155.083 9.969 150.352 C8.717 144.286 7.474 138.219 6.233 132.15 C5.277 127.48 4.316 122.811 3.353 118.142 C2.892 115.905 2.433 113.667 1.976 111.428 C1.338 108.306 0.692 105.186 0.045 102.065 C-0.142 101.14 -0.33 100.215 -0.523 99.261 C-0.701 98.411 -0.879 97.56 -1.063 96.683 C-1.29 95.578 -1.29 95.578 -1.522 94.451 C-2.132 92.253 -3.012 90.393 -4.094 88.391 Z " fill="#737373" transform="translate(881.09375,4.609375)"/>
<path d="M0 0 C17.36 -0.07 34.72 -0.123 52.08 -0.155 C60.142 -0.171 68.204 -0.192 76.266 -0.226 C83.298 -0.256 90.331 -0.276 97.363 -0.282 C101.082 -0.286 104.8 -0.295 108.518 -0.317 C112.685 -0.342 116.851 -0.342 121.018 -0.341 C122.23 -0.351 123.442 -0.362 124.691 -0.373 C136.765 -0.33 149.44 0.98 159 9 C164.024 14.082 166.407 19.53 168.006 26.419 C168.174 27.12 168.343 27.821 168.516 28.543 C170.197 35.631 171.644 42.764 173.037 49.914 C173.315 51.324 173.593 52.734 173.871 54.144 C174.617 57.923 175.357 61.703 176.097 65.483 C176.88 69.482 177.668 73.48 178.456 77.479 C179.948 85.055 181.435 92.632 182.921 100.21 C184.76 109.584 186.604 118.957 188.447 128.33 C189.101 131.653 189.755 134.976 190.408 138.3 C190.567 139.109 190.726 139.917 190.89 140.751 C191.966 146.222 193.041 151.694 194.115 157.166 C195.486 164.154 196.861 171.142 198.238 178.129 C198.745 180.705 199.251 183.281 199.757 185.858 C200.454 189.406 201.154 192.954 201.856 196.502 C202.06 197.547 202.265 198.593 202.475 199.67 C202.757 201.087 202.757 201.087 203.044 202.532 C203.205 203.353 203.367 204.173 203.534 205.018 C203.934 207.059 203.934 207.059 205 209 C213.729 185.815 222.388 162.604 231 139.375 C231.241 138.724 231.483 138.072 231.732 137.401 C234.224 130.679 236.716 123.956 239.208 117.233 C247.696 94.328 256.192 71.426 264.692 48.525 C265.556 46.196 266.421 43.867 267.285 41.537 C269.63 35.218 271.976 28.898 274.324 22.58 C275.018 20.712 275.711 18.844 276.405 16.975 C277.339 14.457 278.275 11.939 279.211 9.422 C279.483 8.689 279.754 7.956 280.034 7.2 C281.886 2.229 281.886 2.229 283 0 C311.71 0 340.42 0 370 0 C366.625 10.126 366.625 10.126 365.233 13.559 C364.758 14.735 364.758 14.735 364.274 15.935 C363.937 16.761 363.601 17.586 363.254 18.438 C362.891 19.334 362.528 20.231 362.154 21.156 C360.96 24.105 359.761 27.052 358.562 30 C357.716 32.088 356.869 34.177 356.022 36.265 C349.111 53.307 342.16 70.334 335.203 87.357 C330.284 99.397 325.38 111.444 320.5 123.5 C314.694 137.844 308.852 152.174 303 166.5 C297.191 180.722 291.39 194.947 285.625 209.188 C278.511 226.759 271.359 244.315 264.202 261.87 C257.121 279.241 250.06 296.62 243 314 C214.29 314 185.58 314 156 314 C154.198 308.595 152.497 303.39 151.052 297.914 C150.879 297.259 150.705 296.603 150.526 295.927 C149.951 293.756 149.38 291.583 148.809 289.41 C148.392 287.833 147.974 286.255 147.557 284.678 C146.656 281.271 145.757 277.864 144.859 274.457 C143.411 268.959 141.958 263.461 140.504 257.964 C138.954 252.1 137.404 246.237 135.855 240.373 C130.173 218.858 124.466 197.35 118.758 175.842 C117.665 171.724 116.572 167.605 115.48 163.487 C112.783 153.324 110.086 143.162 107.389 132.999 C106.061 127.996 104.733 122.992 103.405 117.989 C100.618 107.486 97.83 96.984 95.041 86.482 C93.881 82.114 92.721 77.747 91.562 73.379 C90.497 69.366 89.432 65.354 88.365 61.341 C87.978 59.883 87.591 58.424 87.204 56.966 C86.68 54.989 86.154 53.013 85.629 51.037 C85.19 49.386 85.19 49.386 84.743 47.7 C83.784 43.443 83.784 43.443 80.805 40.533 C79.354 39.772 79.354 39.772 77.875 38.996 C76.246 38.14 76.246 38.14 74.583 37.266 C73.39 36.655 72.195 36.046 71 35.438 C70.395 35.127 69.79 34.816 69.167 34.497 C46.772 23.034 23.2 14.779 -1 8 C-1.125 2.25 -1.125 2.25 0 0 Z " fill="#737373" transform="translate(1,5)"/>
<path d="M0 0 C0.819 -0.007 1.637 -0.014 2.481 -0.021 C5.107 -0.039 7.733 -0.045 10.359 -0.047 C11.257 -0.048 12.154 -0.048 13.079 -0.049 C26.299 -0.033 39.154 0.324 52.109 3.203 C52.964 3.391 53.818 3.578 54.698 3.771 C64.682 6.019 74.488 8.703 84.109 12.203 C84.44 19.751 83.178 26.9 81.922 34.328 C81.697 35.684 81.473 37.04 81.249 38.397 C80.663 41.942 80.069 45.486 79.474 49.03 C78.866 52.656 78.265 56.283 77.664 59.91 C76.486 67.009 75.3 74.106 74.109 81.203 C69.478 80.504 65.726 79.323 61.422 77.453 C35.219 66.557 3.867 62.408 -23.328 71.953 C-29.963 74.879 -35.123 79.066 -38.453 85.578 C-40.271 90.321 -40.29 94.339 -38.891 99.203 C-31.953 113.681 -13.853 120.637 -0.422 127.601 C27.963 142.323 57.008 158.48 69.113 190.02 C77.005 215.242 73.084 241.424 61.191 264.682 C58.355 270.003 55.111 274.683 51.109 279.203 C50.421 280.022 49.733 280.84 49.023 281.684 C28.518 305.462 -2.54 317.364 -32.891 322.203 C-34.737 322.511 -34.737 322.511 -36.621 322.824 C-74.788 328.449 -124.104 325.597 -158.891 308.203 C-159.219 300.624 -157.968 293.389 -156.738 285.93 C-156.516 284.556 -156.294 283.182 -156.073 281.808 C-155.61 278.945 -155.143 276.082 -154.673 273.22 C-154.07 269.549 -153.476 265.877 -152.884 262.204 C-152.428 259.375 -151.968 256.546 -151.507 253.717 C-151.287 252.362 -151.067 251.007 -150.848 249.652 C-150.543 247.766 -150.233 245.88 -149.922 243.995 C-149.747 242.922 -149.571 241.849 -149.391 240.744 C-148.891 238.203 -148.891 238.203 -147.891 236.203 C-143.146 237.629 -138.749 239.585 -134.251 241.631 C-118.831 248.606 -102.812 254.334 -85.891 256.203 C-84.435 256.367 -84.435 256.367 -82.949 256.535 C-62.351 258.469 -40.428 258.73 -22.891 246.203 C-22.148 245.873 -21.406 245.543 -20.641 245.203 C-18.268 243.848 -17.896 242.749 -16.891 240.203 C-16.502 239.35 -16.502 239.35 -16.105 238.48 C-13.19 231.66 -12.706 225.552 -15.453 218.578 C-23.005 203.578 -42.106 196.403 -56.254 189.117 C-72.953 180.511 -88.231 171.241 -101.891 158.203 C-102.575 157.593 -103.26 156.984 -103.965 156.355 C-117.279 144.035 -125.03 126.538 -126.109 108.559 C-126.733 82.092 -117.843 58.825 -99.891 39.203 C-74.461 13.095 -35.991 0.208 0 0 Z " fill="#737373" transform="translate(642.890625,-0.203125)"/>
<path d="M0 0 C27.06 0 54.12 0 82 0 C80.851 14.932 80.851 14.932 79.773 21.414 C79.652 22.164 79.532 22.914 79.408 23.686 C79.011 26.152 78.607 28.616 78.203 31.081 C77.913 32.872 77.624 34.664 77.335 36.457 C76.549 41.318 75.757 46.179 74.964 51.04 C74.116 56.243 73.274 61.448 72.432 66.652 C70.819 76.61 69.201 86.567 67.58 96.524 C65.801 107.458 64.028 118.392 62.255 129.327 C59.979 143.368 57.701 157.408 55.42 171.449 C51.928 192.936 48.444 214.425 44.979 235.917 C44.413 239.432 43.846 242.946 43.279 246.461 C41.659 256.504 40.04 266.547 38.425 276.59 C37.772 280.651 37.117 284.711 36.462 288.771 C36.158 290.653 35.856 292.536 35.553 294.419 C35.142 296.984 34.728 299.549 34.313 302.114 C34.194 302.862 34.075 303.61 33.952 304.38 C33.423 307.639 32.802 310.793 32 314 C4.94 314 -22.12 314 -50 314 C-49.379 307.168 -48.714 300.533 -47.601 293.794 C-47.462 292.935 -47.323 292.077 -47.18 291.192 C-46.72 288.347 -46.254 285.502 -45.788 282.658 C-45.454 280.6 -45.12 278.543 -44.787 276.486 C-43.88 270.898 -42.969 265.311 -42.057 259.724 C-41.089 253.786 -40.125 247.847 -39.161 241.908 C-37.32 230.576 -35.475 219.244 -33.629 207.913 C-30.379 187.959 -27.136 168.005 -23.892 148.05 C-22.903 141.968 -21.914 135.887 -20.925 129.805 C-13.889 86.546 -6.927 43.276 0 0 Z " fill="#737373" transform="translate(402,5)"/>
<path d="M0 0 C17.36 -0.07 34.72 -0.123 52.08 -0.155 C60.142 -0.171 68.204 -0.192 76.266 -0.226 C83.298 -0.256 90.331 -0.276 97.363 -0.282 C101.082 -0.286 104.8 -0.295 108.518 -0.317 C112.685 -0.342 116.851 -0.342 121.018 -0.341 C122.23 -0.351 123.442 -0.362 124.691 -0.373 C136.765 -0.33 149.44 0.98 159 9 C171.693 21.84 172.348 46.22 175.689 63.178 C176.262 66.084 176.837 68.99 177.412 71.896 C178.767 78.743 180.117 85.59 181.465 92.439 C182.854 99.497 184.252 106.553 185.654 113.608 C186.862 119.69 188.064 125.772 189.262 131.856 C189.975 135.48 190.691 139.104 191.413 142.726 C192.214 146.748 193.003 150.772 193.79 154.796 C194.031 155.995 194.271 157.193 194.519 158.428 C194.73 159.519 194.942 160.611 195.16 161.736 C195.348 162.686 195.535 163.635 195.728 164.614 C196 167 196 167 195 170 C194.724 169.342 194.449 168.684 194.165 168.007 C177.333 128.108 152.564 91.714 118 65 C117.412 64.541 116.825 64.083 116.219 63.61 C102.402 52.856 88.116 43.652 72.31 36.11 C69.735 34.873 67.177 33.607 64.617 32.34 C43.339 21.878 21.801 14.456 -1 8 C-1.125 2.25 -1.125 2.25 0 0 Z " fill="#737373" transform="translate(1,5)"/>
</svg>