<svg width="16px" height="23px" viewBox="0 0 16 23" fill="none" xmlns="http://www.w3.org/2000/svg" transform="rotate(0) scale(1, 1)">
<g style="mix-blend-mode:plus-lighter" opacity="1">
<path d="M7.95508 0.95459C4.09049 0.95459 0.955078 3.95984 0.955078 7.66122C0.955078 11.9202 5.62174 18.6694 7.33529 21.0006C7.40641 21.099 7.49964 21.179 7.60735 21.2342C7.71507 21.2894 7.83422 21.3182 7.95508 21.3182C8.07594 21.3182 8.19509 21.2894 8.3028 21.2342C8.41052 21.179 8.50374 21.099 8.57487 21.0006C10.2884 18.6704 14.9551 11.9236 14.9551 7.66122C14.9551 3.95984 11.8197 0.95459 7.95508 0.95459Z" stroke="#ffffff" stroke-width="1.90909" stroke-linecap="round" stroke-linejoin="round"/>
<path d="M7.95443 10.3533C9.24309 10.3533 10.2878 9.30132 10.2878 8.00358C10.2878 6.70584 9.24309 5.65381 7.95443 5.65381C6.66576 5.65381 5.62109 6.70584 5.62109 8.00358C5.62109 9.30132 6.66576 10.3533 7.95443 10.3533Z" stroke="#ffffff" stroke-width="1.90909" stroke-linecap="round" stroke-linejoin="round"/>
</g>
</svg>