<svg version="1.0" xmlns="http://www.w3.org/2000/svg" width="64.000000ptpx" height="64.000000ptpx" viewBox="0 0 64.000000 64.000000" preserveAspectRatio="xMidYMid meet" transform="rotate(0) scale(1, 1)">

<g transform="translate(0.000000,64.000000) scale(0.100000,-0.100000)" fill="#000000" stroke="none">
<path d="M225 616 c-89 -42 -138 -116 -138 -211 0 -67 15 -99 123 -264 62 -95&#10;98 -141 110 -141 12 0 48 46 110 141 108 165 123 197 123 264 0 95 -49 169&#10;-138 211 -65 31 -125 31 -190 0z m180 -25 c52 -23 101 -80 116 -133 19 -71 -3&#10;-132 -106 -290 -50 -76 -92 -138 -95 -138 -3 0 -45 62 -95 138 -103 158 -125&#10;219 -106 290 33 119 173 185 286 133z"/>
<path d="M263 510 c-40 -24 -64 -60 -65 -99 -3 -101 102 -164 187 -111 55 34&#10;74 114 40 166 -21 32 -73 64 -105 64 -14 0 -39 -9 -57 -20z m111 -31 c38 -30&#10;49 -64 36 -105 -29 -85 -151 -85 -180 0 -13 41 -2 75 36 105 15 11 39 21 54&#10;21 15 0 39 -10 54 -21z"/>
</g>
</svg>